<svg width="722" height="376" viewBox="0 0 722 376" fill="none" xmlns="http://www.w3.org/2000/svg">
<path fill-rule="evenodd" clip-rule="evenodd" d="M63.3454 317.898C59.2202 311.042 55.8551 303.502 52.5539 296.776C50.7978 299.485 45.7655 329.13 38.8135 375.61H53.855C58.4101 341.49 61.7974 320.332 63.3454 317.898Z" fill="#E4B649" fill-opacity="0.1"/>
<path fill-rule="evenodd" clip-rule="evenodd" d="M50.4651 298.233C47.1306 291.868 44.0318 285.806 40.897 281.202C39.1909 283.671 33.1017 320.006 24.7292 375.611H38.3254C44.4091 329.969 48.8311 300.845 50.4651 298.233Z" fill="#E4B649" fill-opacity="0.1"/>
<path fill-rule="evenodd" clip-rule="evenodd" d="M39.3958 279.353C36.5856 275.35 33.903 271.548 31.2536 267.934C28.1161 286.074 24.9397 303.974 21.8909 321.764C18.7893 339.83 15.7294 357.805 12.75 375.572L12.9497 375.608H25.1727C29.7278 343.993 34.566 311.799 39.3958 279.351V279.353Z" fill="#E4B649" fill-opacity="0.1"/>
<path fill-rule="evenodd" clip-rule="evenodd" d="M30.152 266.052C27.8051 262.308 25.5663 258.978 23.4358 255.841C19.3966 275.756 15.363 295.452 11.4791 314.77C7.55925 334.284 3.71149 353.575 0.00244141 372.49V373.266C3.52562 373.93 7.1459 374.59 10.8633 375.191C13.8954 357.283 17.1024 339.093 20.337 320.746C23.5162 302.708 26.9007 284.496 30.152 266.052Z" fill="#E4B649" fill-opacity="0.1"/>
<path fill-rule="evenodd" clip-rule="evenodd" d="M22.376 254.451C20.3675 251.452 18.7863 248.425 17.3881 245.211C12.4723 266.623 7.49822 287.848 2.89589 308.739L0.00244141 321.874V364.199C3.28704 347.676 6.69648 330.913 10.142 313.975C14.1146 294.425 18.2231 274.503 22.3788 254.453L22.376 254.451Z" fill="#E4B649" fill-opacity="0.1"/>
<path fill-rule="evenodd" clip-rule="evenodd" d="M16.3644 243.997C14.6611 241.304 13.1325 238.747 11.7843 235.93C7.82557 251.976 3.87794 267.884 0.00244141 283.635V315.41L1.66694 308.032C6.39133 287.075 11.3321 265.649 16.3644 244V243.997Z" fill="#E4B649" fill-opacity="0.1"/>
<path fill-rule="evenodd" clip-rule="evenodd" d="M11.0297 234.757C9.68148 232.533 8.76046 229.921 7.84499 227.322C5.20121 237.221 2.58796 247.062 0.00244141 256.837V279.069C3.65323 264.457 7.35951 249.678 11.0297 234.76V234.757Z" fill="#E4B649" fill-opacity="0.1"/>
<path fill-rule="evenodd" clip-rule="evenodd" d="M6.86016 226.624C5.94746 224.364 5.12354 222.047 4.53819 219.809L0.00244141 235.943V252.373C2.26615 243.837 4.55206 235.248 6.86016 226.624Z" fill="#E4B649" fill-opacity="0.1"/>
<path fill-rule="evenodd" clip-rule="evenodd" d="M4.16645 218.036C3.43407 215.856 2.85428 213.77 2.34938 211.902L0.00244141 219.917V232.807L4.16645 218.036Z" fill="#E4B649" fill-opacity="0.1"/>
<path fill-rule="evenodd" clip-rule="evenodd" d="M2.18848 210.738C1.76681 208.762 1.57816 206.776 1.31184 204.858L0.00244141 209.204V218.154L2.18848 210.738Z" fill="#E4B649" fill-opacity="0.1"/>
<path fill-rule="evenodd" clip-rule="evenodd" d="M1.20365 204.133C1.01778 202.243 1.14262 200.121 1.33681 198.107L0.00244141 202.409V208.1L1.20365 204.133Z" fill="#E4B649" fill-opacity="0.1"/>
<path fill-rule="evenodd" clip-rule="evenodd" d="M1.41449 196.725C1.43391 195.125 1.76958 193.257 2.10525 191.279L0.00244141 198.028V201.258L1.41449 196.725Z" fill="#E4B649" fill-opacity="0.1"/>
<path fill-rule="evenodd" clip-rule="evenodd" d="M2.13894 190.774C2.4552 189.088 2.98784 187.466 3.60092 185.626L0.00561523 197.197V197.581L2.14172 190.774H2.13894Z" fill="#E4B649" fill-opacity="0.1"/>
<path fill-rule="evenodd" clip-rule="evenodd" d="M3.95007 184.539C4.69354 182.939 5.51469 181.187 6.08894 179.818C4.06658 186.371 2.03312 192.923 0.00244141 199.462V197.233C1.32849 193.003 2.64899 188.777 3.95007 184.539Z" fill="#E4B649" fill-opacity="0.1"/>
<path fill-rule="evenodd" clip-rule="evenodd" d="M6.72179 178.775C7.59287 177.255 8.75247 175.545 9.90652 173.931C6.59972 184.749 3.2846 195.561 0 206.343V200.549C2.24707 193.293 4.49691 186.023 6.71901 178.775H6.72179Z" fill="#E4B649" fill-opacity="0.1"/>
<path fill-rule="evenodd" clip-rule="evenodd" d="M179.13 375.611C171.133 367.841 163.531 360.613 156.319 353.235C151.88 360.527 147.239 368.051 142.609 375.611H179.13Z" fill="#E4B649" fill-opacity="0.1"/>
<path fill-rule="evenodd" clip-rule="evenodd" d="M152.201 349.508C143.945 340.834 136.286 333.644 129.078 327.003C120.936 338.221 113.391 349.111 105.429 361.181C108.988 365.54 112.622 370.435 116.425 375.613H135.878C141.36 366.655 146.797 357.994 152.201 349.508Z" fill="#E4B649" fill-opacity="0.1"/>
<path fill-rule="evenodd" clip-rule="evenodd" d="M125.703 323.447C118.562 317.074 112.273 311.015 106.167 305.186C99.0292 314.751 91.7054 324.954 84.5647 335.018C90.0159 341.985 96.0331 349.108 102.222 356.98C110.09 345.604 117.624 334.577 125.703 323.447Z" fill="#E4B649" fill-opacity="0.1"/>
<path fill-rule="evenodd" clip-rule="evenodd" d="M103.21 302.504C97.5782 297.574 92.1797 292.569 87.1252 287.92C80.7973 296.299 74.2336 304.438 67.584 313.12C72.2141 318.834 76.9357 324.865 81.968 331.649C89.056 321.88 96.2216 311.802 103.212 302.504H103.21Z" fill="#E4B649" fill-opacity="0.1"/>
<path fill-rule="evenodd" clip-rule="evenodd" d="M69.5816 270.817C65.7061 266.979 61.8917 263.555 58.2076 260.245C52.9839 266.427 47.2774 273.228 42.0703 279.803C45.022 283.77 48.4481 288.008 51.8631 292.836C57.7942 285.073 63.5867 278.302 69.5816 270.817Z" fill="#E4B649" fill-opacity="0.1"/>
<path fill-rule="evenodd" clip-rule="evenodd" d="M56.0653 259.108C52.7724 255.885 49.4406 252.961 46.5444 249.694C41.8727 255.204 36.9735 260.882 32.4211 266.392C34.904 270.113 37.6726 273.844 40.5633 277.819C45.615 271.628 50.9997 265.169 56.0653 259.108Z" fill="#E4B649" fill-opacity="0.1"/>
<path fill-rule="evenodd" clip-rule="evenodd" d="M44.4477 247.813C41.7706 244.852 39.2045 242.157 36.7466 239.478C32.4772 244.337 28.0746 249.471 24.0271 254.258C25.9884 257.329 28.3049 260.441 30.7322 263.867C35.2819 258.416 40.095 252.956 44.4505 247.813H44.4477Z" fill="#E4B649" fill-opacity="0.1"/>
<path fill-rule="evenodd" clip-rule="evenodd" d="M35.2011 237.986C32.8624 235.69 30.7818 233.301 28.5597 231.085C24.8618 235.249 20.9613 239.514 17.2578 243.677C18.8169 246.676 20.6395 249.623 22.3151 252.793C26.6095 247.97 31.0898 242.858 35.2011 237.986Z" fill="#E4B649" fill-opacity="0.1"/>
<path fill-rule="evenodd" clip-rule="evenodd" d="M27.6972 229.926C25.7415 227.818 23.9604 225.371 22.4263 223.191C18.9836 226.905 15.7462 230.563 12.0676 234.517C13.5795 237.182 15.1081 239.701 16.7254 242.438C20.3402 238.404 24.077 234.219 27.7 229.926H27.6972Z" fill="#E4B649" fill-opacity="0.1"/>
<path fill-rule="evenodd" clip-rule="evenodd" d="M21.4387 221.476C19.7742 219.536 18.3455 217.696 16.853 215.798C13.6599 219.26 10.5085 222.822 7.75098 225.857C8.66922 228.255 9.91759 230.506 10.9302 233.083C14.3618 229.215 17.921 225.234 21.4414 221.476H21.4387Z" fill="#E4B649" fill-opacity="0.1"/>
<path fill-rule="evenodd" clip-rule="evenodd" d="M16.2567 215.199C14.9334 213.31 13.8542 211.26 12.6974 209.602C10.1563 212.245 7.59018 215.169 5.08789 217.994C5.83136 220.188 6.49716 222.519 7.40709 224.779C10.3255 221.564 13.23 218.347 16.2567 215.199Z" fill="#E4B649" fill-opacity="0.1"/>
<path fill-rule="evenodd" clip-rule="evenodd" d="M12.2063 208.478C11.0606 206.892 10.3782 205.06 9.70128 203.357C7.49582 205.661 5.19605 208.072 3.04053 210.426C3.4622 212.44 4.11967 214.424 4.5358 216.799C7.03254 214.098 9.75676 211.058 12.2091 208.478H12.2063Z" fill="#E4B649" fill-opacity="0.1"/>
<path fill-rule="evenodd" clip-rule="evenodd" d="M9.20472 202.621C8.68873 200.847 8.08951 199.355 7.57352 197.683C5.61496 199.724 3.87279 201.724 1.81714 203.882C2.08901 205.714 2.35533 207.689 2.777 209.596C5.01297 207.135 7.15739 204.803 9.20472 202.624V202.621Z" fill="#E4B649" fill-opacity="0.1"/>
<path fill-rule="evenodd" clip-rule="evenodd" d="M7.3319 196.488C7.04338 194.852 6.67719 193.403 6.61894 191.673C4.82683 193.613 3.26221 195.31 1.77248 196.888C1.57829 198.929 1.62545 200.717 1.73364 202.717C3.47582 200.819 5.52592 198.518 7.3319 196.49V196.488Z" fill="#E4B649" fill-opacity="0.1"/>
<path fill-rule="evenodd" clip-rule="evenodd" d="M33.7255 151.525C35.9892 150.308 38.1142 149.163 40.4445 148.23C40.4417 148.564 40.5111 148.766 40.7219 148.744C38.2474 149.902 35.6258 151.436 33.5674 152.537C33.5757 152.087 33.5757 151.958 33.7255 151.525Z" fill="#E4B649" fill-opacity="0.1"/>
<path fill-rule="evenodd" clip-rule="evenodd" d="M6.34205 185.8C6.64721 184.244 6.86914 182.751 7.22978 181.44C6.31431 182.345 5.08813 183.67 4.08389 184.806C3.5457 186.567 3.01306 188.288 2.46655 190.07C3.9424 188.506 5.03265 187.254 6.33928 185.8H6.34205Z" fill="#E4B649" fill-opacity="0.1"/>
<path fill-rule="evenodd" clip-rule="evenodd" d="M7.64842 180.26C8.15886 178.82 8.73311 177.357 9.30736 175.95C8.39467 177.001 7.70667 177.912 6.7912 178.927C5.83689 180.616 5.09619 182.221 4.34717 183.99C5.50954 182.621 6.43056 181.556 7.65119 180.26H7.64842Z" fill="#E4B649" fill-opacity="0.1"/>
<path fill-rule="evenodd" clip-rule="evenodd" d="M18.4681 163.228C19.7886 161.851 21.1729 160.585 22.6238 159.448C22.2548 159.961 21.8831 160.499 21.5862 160.933C19.9828 162.359 18.4514 163.683 16.9839 165.046C17.5027 164.475 17.8023 164.047 18.4681 163.228Z" fill="#E4B649" fill-opacity="0.1"/>
<path fill-rule="evenodd" clip-rule="evenodd" d="M261.351 362.759C247.377 353.354 235.279 344.445 222.654 336.257C215.125 349.031 207.299 361.659 199.396 375.613H254.474C256.746 371.282 259.037 366.997 261.351 362.759Z" fill="#E4B649" fill-opacity="0.1"/>
<path fill-rule="evenodd" clip-rule="evenodd" d="M216.995 332.629C205.89 324.801 195.503 317.305 185.891 310.436C177.829 322.434 169.845 334.389 161.895 347.083C171.227 355.721 180.778 365.339 191.695 374.678C200.064 359.97 208.764 346.241 216.995 332.629Z" fill="#E4B649" fill-opacity="0.1"/>
<path fill-rule="evenodd" clip-rule="evenodd" d="M181.291 307.232C172.081 301.902 163.931 296.023 156.005 290.549C148.692 300.338 141.138 310.601 133.836 321.309C141.271 328.275 148.897 335.385 157.445 343.54C165.589 330.766 173.202 318.732 181.291 307.232Z" fill="#E4B649" fill-opacity="0.1"/>
<path fill-rule="evenodd" clip-rule="evenodd" d="M152.396 287.638C144.761 282.722 137.801 277.739 131.096 273.554C124.385 281.933 117.244 291.432 110.428 301.121C116.67 306.603 123.323 311.953 130.502 318.094C137.529 307.864 145.033 297.697 152.396 287.638Z" fill="#E4B649" fill-opacity="0.1"/>
<path fill-rule="evenodd" clip-rule="evenodd" d="M127.899 271.512C121.513 267.724 115.743 263.691 110.02 260.396C103.656 267.876 97.5558 275.654 91.0559 284.01C96.1659 288.463 101.789 293.005 107.432 298.051C114.179 289.203 121.172 279.831 127.899 271.512Z" fill="#E4B649" fill-opacity="0.1"/>
<path fill-rule="evenodd" clip-rule="evenodd" d="M51.7877 143.965C50.3035 143.814 48.9608 143.654 47.7624 143.422C45.3045 145.841 43.0491 148.098 40.6411 150.394C41.8423 150.559 42.9742 150.951 44.2503 151.249C46.7304 148.909 49.1245 146.476 51.7877 143.965Z" fill="#E4B649" fill-opacity="0.1"/>
<path fill-rule="evenodd" clip-rule="evenodd" d="M90.0072 246.9C85.488 244.199 81.3962 241.337 77.1905 238.711C71.9807 244.902 66.6154 251.124 61.3501 257.45C65.1035 260.471 68.9957 263.815 73.1847 267.175C78.7302 260.355 84.2924 253.684 90.0072 246.9Z" fill="#E4B649" fill-opacity="0.1"/>
<path fill-rule="evenodd" clip-rule="evenodd" d="M74.8442 237.869C71.0963 235.24 67.3151 232.873 63.7198 230.453C59.2451 235.61 54.5651 241.003 50.0737 246.45C53.1309 249.498 56.3794 252.387 59.7583 255.529C64.7213 249.793 69.7758 243.82 74.8442 237.869Z" fill="#E4B649" fill-opacity="0.1"/>
<path fill-rule="evenodd" clip-rule="evenodd" d="M61.4811 229.022C58.105 226.972 55.3863 224.574 52.3847 222.621C48.1208 227.378 43.818 232.084 39.7844 236.777C42.2423 239.349 44.9693 241.859 47.8933 244.676C52.54 239.015 57.0758 233.922 61.4783 229.022H61.4811Z" fill="#E4B649" fill-opacity="0.1"/>
<path fill-rule="evenodd" clip-rule="evenodd" d="M50.6863 221.315C47.8733 219.345 45.3183 217.348 42.6329 215.806C38.9072 219.839 34.9929 224.038 31.0342 228.759C33.1758 230.983 35.4201 233.154 37.9252 235.681C42.0393 231.024 46.4224 225.964 50.6863 221.315Z" fill="#E4B649" fill-opacity="0.1"/>
<path fill-rule="evenodd" clip-rule="evenodd" d="M41.6844 214.959C39.3319 213.091 37.0737 211.519 35.1374 209.709C31.7251 213.403 28.2047 217.233 24.8064 220.83C26.5791 222.922 28.3656 225.234 30.4851 227.499C34.1997 223.153 37.9559 219.056 41.6844 214.957V214.959Z" fill="#E4B649" fill-opacity="0.1"/>
<path fill-rule="evenodd" clip-rule="evenodd" d="M33.7532 208.47C31.6865 207.123 30.0192 205.327 28.3603 203.785C25.1062 207.173 21.8216 210.738 18.5869 214.366C20.3208 215.938 21.669 218.038 23.2641 219.95C26.6653 216.178 30.3438 212.194 33.7532 208.473V208.47Z" fill="#E4B649" fill-opacity="0.1"/>
<path fill-rule="evenodd" clip-rule="evenodd" d="M27.4507 203.3C25.6503 201.989 24.4741 200.243 22.9982 198.745C20.213 201.642 17.3306 204.726 14.6619 207.667C15.9768 209.311 17.1392 211.149 18.4652 213.047C21.4586 209.789 24.4297 206.522 27.4507 203.3Z" fill="#E4B649" fill-opacity="0.1"/>
<path fill-rule="evenodd" clip-rule="evenodd" d="M14.8221 188.818C14.2201 187.384 13.6875 186.109 13.2297 184.793C11.3184 186.813 9.62889 188.6 7.8562 190.493C8.14471 192.027 8.59135 193.44 8.72729 195.236C10.8967 192.998 12.833 190.89 14.8249 188.821L14.8221 188.818Z" fill="#E4B649" fill-opacity="0.1"/>
<path fill-rule="evenodd" clip-rule="evenodd" d="M12.736 184.329C12.5834 182.795 12.1229 181.744 12.0397 180.461C10.5943 181.967 9.06576 183.595 7.60933 185.182C7.53443 186.644 7.67591 188.172 7.82294 189.629C9.44305 187.855 11.0548 186.051 12.736 184.329Z" fill="#E4B649" fill-opacity="0.1"/>
<path fill-rule="evenodd" clip-rule="evenodd" d="M12.2644 175.423C12.3837 174.469 12.7332 173.062 12.994 172.005C12.0175 173.084 10.9578 174.3 10.0534 175.294C9.33488 176.786 8.83276 178.204 8.39722 179.639C9.68443 178.328 10.9051 176.888 12.2616 175.426L12.2644 175.423Z" fill="#E4B649" fill-opacity="0.1"/>
<path fill-rule="evenodd" clip-rule="evenodd" d="M14.728 168.211C15.2662 167.284 16.0984 165.893 17.2192 164.511C16.6227 165.292 15.8765 166.133 15.5713 166.735C14.2286 168.343 13.2466 169.624 12.1841 171.072C12.9387 170.175 13.9096 169.132 14.7308 168.211H14.728Z" fill="#E4B649" fill-opacity="0.1"/>
<path fill-rule="evenodd" clip-rule="evenodd" d="M22.2961 158.629C23.3197 157.501 24.4044 156.499 25.4114 155.603C24.7567 156.45 24.1714 157.252 23.5195 157.948C22.285 159.093 21.0449 160.331 19.9519 161.322C20.8341 160.337 21.4916 159.592 22.2988 158.629H22.2961Z" fill="#E4B649" fill-opacity="0.1"/>
<path fill-rule="evenodd" clip-rule="evenodd" d="M19.6301 164.343C19.8021 163.483 20.1905 162.556 20.3625 161.687C19.3305 162.903 18.2236 164.125 17.1889 165.226C16.8005 166.233 16.2567 167.334 15.8545 168.421C17.0446 167.155 18.3762 165.8 19.6301 164.343Z" fill="#E4B649" fill-opacity="0.1"/>
<path fill-rule="evenodd" clip-rule="evenodd" d="M492.335 230.542C469.554 225.747 448.62 221.021 428.904 216.523C421.306 228.776 413.549 240.477 406.286 253.033C425.411 258.355 446.512 265.214 469.876 272.199C477.477 257.74 484.845 244.061 492.338 230.542H492.335Z" fill="#E4B649" fill-opacity="0.1"/>
<path fill-rule="evenodd" clip-rule="evenodd" d="M360.954 216.705C345.05 213.179 331.057 209.703 317.131 207.074C310.301 216.322 302.863 225.901 295.448 235.944C309.036 240.071 323.298 244.502 338.625 249.404C345.765 238.391 353.539 227.079 360.954 216.703V216.705Z" fill="#E4B649" fill-opacity="0.1"/>
<path fill-rule="evenodd" clip-rule="evenodd" d="M342.243 144.727C329.576 144.219 317.725 143.452 306.289 142.845C299.856 149.87 293.559 156.72 287.506 163.838C298.597 164.845 310.376 166.125 322.907 167.957C329.16 159.934 335.401 152.165 342.243 144.727Z" fill="#E4B649" fill-opacity="0.1"/>
<path fill-rule="evenodd" clip-rule="evenodd" d="M409.543 375.61C393.306 367 378.112 358.855 363.803 351.006C359.714 359.043 355.616 367.24 351.566 375.61H409.541H409.543Z" fill="#E4B649" fill-opacity="0.1"/>
<path fill-rule="evenodd" clip-rule="evenodd" d="M354.082 345.966C335.44 336.053 319.014 326.496 302.943 317.943C294.513 332.527 285.877 348.211 277.282 363.866C282.542 367.756 287.896 371.657 293.386 375.611H339.612C344.509 365.48 349.322 355.633 354.082 345.966Z" fill="#E4B649" fill-opacity="0.1"/>
<path fill-rule="evenodd" clip-rule="evenodd" d="M295.509 314.105C280.959 306.965 267.526 300.332 255.187 293.758C247.236 305.828 238.767 318.784 231.118 332.152C243.139 340.478 256.069 349.023 270.287 358.227C278.501 342.809 287.076 328.488 295.509 314.105Z" fill="#E4B649" fill-opacity="0.1"/>
<path fill-rule="evenodd" clip-rule="evenodd" d="M248.432 291.925C236.411 285.778 225.456 280.404 215.07 275.27C207.909 285.445 200.355 295.973 192.763 306.68C202.736 313.473 213.655 320.961 225.154 328.838C233.043 315.55 240.653 303.797 248.432 291.923V291.925Z" fill="#E4B649" fill-opacity="0.1"/>
<path fill-rule="evenodd" clip-rule="evenodd" d="M208.664 271.526C199.065 267.101 190.002 262.786 181.419 258.493C174.569 267.269 167.69 276.531 160.801 286.046C168.927 291.672 177.43 297.046 186.712 302.413C193.905 292.238 201.343 281.825 208.664 271.529V271.526Z" fill="#E4B649" fill-opacity="0.1"/>
<path fill-rule="evenodd" clip-rule="evenodd" d="M176.456 255.979C168.655 251.571 161.187 248.318 153.777 245.095C147.33 253.3 140.714 261.685 133.914 270.158C140.922 274.089 148.248 278.652 155.633 283.721C162.474 274.343 169.62 264.943 176.456 255.979Z" fill="#E4B649" fill-opacity="0.1"/>
<path fill-rule="evenodd" clip-rule="evenodd" d="M150.534 244.193C143.951 241.006 137.451 238.01 131.124 235.359C125.52 242.427 119.591 249.471 113.741 256.517C119.486 260.074 125.57 263.903 131.739 268.008C138.087 259.941 144.495 251.869 150.532 244.193H150.534Z" fill="#E4B649" fill-opacity="0.1"/>
<path fill-rule="evenodd" clip-rule="evenodd" d="M108.714 224.806C103.485 222.908 98.9183 220.781 94.3825 218.687C89.5028 224.182 84.4289 229.954 79.7544 235.392C83.874 238.049 87.8799 240.91 92.7957 243.429C97.9501 237.23 103.276 230.967 108.714 224.803V224.806Z" fill="#E4B649" fill-opacity="0.1"/>
<path fill-rule="evenodd" clip-rule="evenodd" d="M91.9717 217.704C87.5663 215.618 83.5882 213.541 79.6738 212.004C75.1297 216.934 70.9241 221.735 66.2219 227.065C69.8061 229.396 73.4958 231.648 77.3102 234.227C82.3065 228.629 87.0004 223.12 91.9717 217.704Z" fill="#E4B649" fill-opacity="0.1"/>
<path fill-rule="evenodd" clip-rule="evenodd" d="M77.7237 211.237C74.1534 209.557 70.9132 207.813 67.5509 206.356C63.2815 210.925 59.0398 215.409 55.2419 219.933C58.0133 221.975 61.273 223.931 64.4854 226.031C69.0462 220.984 73.4099 216.096 77.7209 211.237H77.7237Z" fill="#E4B649" fill-opacity="0.1"/>
<path fill-rule="evenodd" clip-rule="evenodd" d="M65.1017 205.719C61.8448 204.257 58.9236 202.88 56.094 201.302C52.7095 204.957 48.6926 209.253 45.2554 213.185C47.7077 214.959 50.493 216.724 53.3088 218.725C57.1149 214.308 61.204 209.957 65.1017 205.719Z" fill="#E4B649" fill-opacity="0.1"/>
<path fill-rule="evenodd" clip-rule="evenodd" d="M54.5287 200.505C51.81 199.297 49.0997 198.102 46.7139 196.885C43.396 200.406 40.2057 203.888 36.9072 207.328C38.9962 208.906 41.4069 210.363 43.6817 212.311C47.2743 208.255 50.7614 204.381 54.5287 200.508V200.505Z" fill="#E4B649" fill-opacity="0.1"/>
<path fill-rule="evenodd" clip-rule="evenodd" d="M46.0177 196.212C43.6458 195.083 41.5929 193.823 39.3265 192.802C36.4552 195.743 33.4147 198.979 30.3521 202.157C32.244 203.576 34.0722 205.176 36.1389 206.806C39.357 203.267 42.6998 199.804 46.0177 196.212Z" fill="#E4B649" fill-opacity="0.1"/>
<path fill-rule="evenodd" clip-rule="evenodd" d="M38.3471 191.808C36.5439 190.476 34.7546 189.223 32.9708 188.282C30.0302 191.367 27.3698 194.17 24.6899 197.028C26.0909 198.535 27.6527 199.933 29.3006 201.423C32.3633 198.134 35.401 195 38.3471 191.805V191.808Z" fill="#E4B649" fill-opacity="0.1"/>
<path fill-rule="evenodd" clip-rule="evenodd" d="M31.9331 187.609C30.3102 186.726 28.7705 185.799 27.4584 184.641C24.9672 187.275 22.6924 189.659 20.0181 192.512C21.1721 193.795 22.3345 195.047 23.6522 196.341C26.3293 193.56 28.9869 190.823 31.9331 187.609Z" fill="#E4B649" fill-opacity="0.1"/>
<path fill-rule="evenodd" clip-rule="evenodd" d="M280.373 177.92C269.77 176.463 259.667 175.219 249.86 173.685C243.743 181.021 237.582 188.095 231.096 195.458C240.442 197.428 250.39 199.288 260.987 201.903C267.496 193.698 274.02 185.799 280.376 177.92H280.373Z" fill="#E4B649" fill-opacity="0.1"/>
<path fill-rule="evenodd" clip-rule="evenodd" d="M83.613 140.15C80.7279 140.172 77.9925 140.178 75.407 140.222C72.3777 143.257 69.254 146.217 66.3328 149.164C68.8572 149.12 71.0461 149.542 73.8091 149.641C76.9994 146.454 80.2424 143.276 83.6158 140.147L83.613 140.15Z" fill="#E4B649" fill-opacity="0.1"/>
<path fill-rule="evenodd" clip-rule="evenodd" d="M83.1583 130.723C80.5423 131.04 78.0622 131.28 75.6598 131.476C72.7192 134.235 69.9089 136.886 67.157 139.491C69.368 139.504 71.6511 139.477 74.0064 139.383C76.9581 136.574 80.0957 133.611 83.1583 130.723Z" fill="#E4B649" fill-opacity="0.1"/>
<path fill-rule="evenodd" clip-rule="evenodd" d="M585.622 375.611C577.89 372.352 570.336 369.144 562.968 365.974C561.731 369.138 560.516 372.352 559.317 375.611H585.625H585.622Z" fill="#E4B649" fill-opacity="0.1"/>
<path fill-rule="evenodd" clip-rule="evenodd" d="M274.683 108.687C265.54 109.164 256.857 109.583 248.587 109.975C243.488 115.029 238.442 120.156 233.237 125.05C241.51 125.1 249.788 124.984 258.693 124.862C263.859 119.389 269.326 114.036 274.681 108.687H274.683Z" fill="#E4B649" fill-opacity="0.1"/>
<path fill-rule="evenodd" clip-rule="evenodd" d="M452.232 319.419C428.963 309.912 407.624 301.505 387.317 293.733C379.405 308.345 370.936 324.046 363.212 340.868C383.148 351.28 404.029 361.852 427.373 373.164C435.266 354.886 443.791 336.776 452.23 319.419H452.232Z" fill="#E4B649" fill-opacity="0.1"/>
<path fill-rule="evenodd" clip-rule="evenodd" d="M320.484 267.617C305.762 262.148 291.747 257.284 278.753 252.498C271.185 263.315 263.473 274.784 255.971 286.38C268.391 292.732 282.071 299.182 296.05 305.707C304.195 292.933 312.323 279.784 320.482 267.619L320.484 267.617Z" fill="#E4B649" fill-opacity="0.1"/>
<path fill-rule="evenodd" clip-rule="evenodd" d="M231.14 236.942C220.967 233.502 211.685 230.359 202.846 227.123C196.438 235.008 189.733 243.575 183.3 252.381C191.716 256.443 200.929 260.752 210.231 265.205C216.956 255.422 224.199 245.834 231.143 236.942H231.14Z" fill="#E4B649" fill-opacity="0.1"/>
<path fill-rule="evenodd" clip-rule="evenodd" d="M197.798 225.559C189.372 222.734 181.48 220.237 173.915 217.955C167.579 225.429 161.428 233.016 155.092 240.562C162.288 243.633 169.62 246.717 177.552 250.555C184.423 241.743 191.006 233.256 197.798 225.559Z" fill="#E4B649" fill-opacity="0.1"/>
<path fill-rule="evenodd" clip-rule="evenodd" d="M170.655 217.125C163.642 214.865 156.837 212.641 150.16 210.382C144.597 216.97 139.032 223.446 133.345 230.164C139.496 232.914 145.99 236.002 152.598 238.976C158.784 231.524 164.893 224.16 170.652 217.122L170.655 217.125Z" fill="#E4B649" fill-opacity="0.1"/>
<path fill-rule="evenodd" clip-rule="evenodd" d="M145.749 209.044C139.765 207.242 133.903 205.51 128.549 203.785C122.956 210.012 117.646 215.806 112.409 222.033C117.43 224.011 122.834 226.254 128.751 229.079C134.333 221.992 140.214 215.351 145.749 209.044Z" fill="#E4B649" fill-opacity="0.1"/>
<path fill-rule="evenodd" clip-rule="evenodd" d="M125.925 203.228C120.485 201.73 115.61 200.014 110.711 198.607C105.912 203.786 101.018 209.353 96.4575 214.747C100.882 216.681 105.432 218.83 110.714 220.621C115.619 215.023 120.826 208.961 125.922 203.228H125.925Z" fill="#E4B649" fill-opacity="0.1"/>
<path fill-rule="evenodd" clip-rule="evenodd" d="M108.103 197.768C103.415 196.507 99.0014 195.414 94.8346 194.198C90.4376 198.99 85.9129 203.705 81.7378 208.398C85.5523 209.847 89.7329 211.554 93.8831 213.604C98.5242 208.172 103.301 203.004 108.103 197.768Z" fill="#E4B649" fill-opacity="0.1"/>
<path fill-rule="evenodd" clip-rule="evenodd" d="M92.9147 193.597C88.9421 192.504 85.1415 191.345 81.5046 190.076C77.4404 194.449 73.3375 198.808 69.5063 203.06C72.7077 204.594 76.242 206.117 79.8706 207.543C84.2122 202.952 88.5038 198.232 92.9175 193.597H92.9147Z" fill="#E4B649" fill-opacity="0.1"/>
<path fill-rule="evenodd" clip-rule="evenodd" d="M79.0109 189.637C75.4933 188.572 72.3696 187.372 69.3513 186.423C65.6145 190.167 61.936 194.004 58.2991 197.726C60.9761 199.384 64.0444 200.883 67.365 202.223C71.2794 197.936 75.0855 193.803 79.0137 189.637H79.0109Z" fill="#E4B649" fill-opacity="0.1"/>
<path fill-rule="evenodd" clip-rule="evenodd" d="M67.1316 186.241C64.2076 185.234 61.3003 184.387 58.4818 183.612C55.3997 186.834 51.9985 190.355 48.8721 193.779C51.4049 194.821 53.8766 196.008 56.5898 197.167C60.002 193.588 63.5418 189.991 67.1316 186.238V186.241Z" fill="#E4B649" fill-opacity="0.1"/>
<path fill-rule="evenodd" clip-rule="evenodd" d="M57.714 183.024C55.2811 182.031 52.8676 181.112 50.3875 180.295C47.4413 183.344 44.2594 186.754 41.3521 189.833C43.5436 190.934 45.6686 192.107 47.9573 193.238C51.1587 189.85 54.4905 186.517 57.7168 183.027L57.714 183.024Z" fill="#E4B649" fill-opacity="0.1"/>
<path fill-rule="evenodd" clip-rule="evenodd" d="M49.2575 179.608C47.0188 178.775 45.0103 178.039 42.9352 177.407C40.0584 180.251 37.2399 183.032 34.4768 185.995C36.3299 186.887 38.1193 187.965 39.9918 189.146C43.0517 186.012 46.0894 182.767 49.2547 179.608H49.2575Z" fill="#E4B649" fill-opacity="0.1"/>
<path fill-rule="evenodd" clip-rule="evenodd" d="M212.234 169.825C204.289 169.014 196.641 168.399 189.306 167.596C183.882 173.431 178.351 179.407 172.833 185.3C179.91 186.486 186.976 187.907 194.91 189.513C200.697 182.822 206.423 176.168 212.234 169.825Z" fill="#E4B649" fill-opacity="0.1"/>
<path fill-rule="evenodd" clip-rule="evenodd" d="M185.974 167.066C179.058 166.197 172.3 165.609 166.23 164.801C160.915 170.252 155.658 175.828 150.723 181.288C156.731 182.453 162.932 183.628 169.629 184.698C174.944 178.979 180.548 172.882 185.974 167.066Z" fill="#E4B649" fill-opacity="0.1"/>
<path fill-rule="evenodd" clip-rule="evenodd" d="M163.218 164.467C156.909 163.86 151.253 163.322 145.765 162.795C141.013 167.618 136.028 172.788 131.284 177.741C136.561 178.734 142.017 179.738 147.763 180.955C152.762 175.321 158.035 169.759 163.218 164.467Z" fill="#E4B649" fill-opacity="0.1"/>
<path fill-rule="evenodd" clip-rule="evenodd" d="M143.177 162.497C137.807 161.984 132.708 161.672 127.839 161.223C123.381 165.72 118.64 170.694 114.337 175.12C118.973 175.9 123.833 176.48 128.813 177.263C133.36 172.521 138.428 167.35 143.18 162.497H143.177Z" fill="#E4B649" fill-opacity="0.1"/>
<path fill-rule="evenodd" clip-rule="evenodd" d="M125.456 161.049C120.757 160.527 116.365 159.89 111.957 159.716C107.815 163.835 103.573 168.123 99.3872 172.554C103.338 173.235 107.543 174.016 112.079 174.857C116.443 170.2 121.07 165.538 125.456 161.049Z" fill="#E4B649" fill-opacity="0.1"/>
<path fill-rule="evenodd" clip-rule="evenodd" d="M109.915 159.645C105.809 159.253 102.023 158.892 98.1803 158.638C94.1384 162.542 90.077 166.559 86.5649 170.289C89.9328 170.962 93.5392 171.657 97.5229 172.157C101.576 167.833 105.61 163.75 109.912 159.645H109.915Z" fill="#E4B649" fill-opacity="0.1"/>
<path fill-rule="evenodd" clip-rule="evenodd" d="M96.4523 158.508C92.771 158.133 89.184 157.893 85.9715 157.545C82.2569 161.159 78.6006 164.887 74.9858 168.487C78.0124 169.196 81.4829 169.557 84.7425 170.037C88.5542 166.266 92.3299 162.412 96.4523 158.511V158.508Z" fill="#E4B649" fill-opacity="0.1"/>
<path fill-rule="evenodd" clip-rule="evenodd" d="M84.1208 157.603C80.8556 157.313 77.8151 157.023 74.9328 156.756C71.7758 160.022 68.4496 163.308 65.0984 166.509C67.8531 166.972 70.7743 167.676 73.5568 168.297C77.0273 164.691 80.4811 161.267 84.1208 157.603Z" fill="#E4B649" fill-opacity="0.1"/>
<path fill-rule="evenodd" clip-rule="evenodd" d="M73.1657 156.566C70.3749 156.37 67.8809 156.044 65.3259 155.92C62.2827 158.809 59.2255 161.813 56.1545 164.862C58.5126 165.298 60.7319 165.825 63.2453 166.238C66.5243 163.03 69.9282 159.749 73.1657 156.563V156.566Z" fill="#E4B649" fill-opacity="0.1"/>
<path fill-rule="evenodd" clip-rule="evenodd" d="M63.8609 155.661C61.4585 155.371 59.3501 155.112 57.1086 154.916C54.1985 157.755 51.2718 160.506 48.4033 163.461C50.373 163.938 52.4924 164.285 54.6923 164.843C57.694 161.772 60.8232 158.679 63.8637 155.661H63.8609Z" fill="#E4B649" fill-opacity="0.1"/>
<path fill-rule="evenodd" clip-rule="evenodd" d="M56.1659 154.864C54.1407 154.53 52.4097 154.102 50.612 153.763C47.9821 156.392 45.269 159.057 42.825 161.526C44.4118 161.998 46.2205 162.453 47.8906 163.011C50.6148 160.288 53.4694 157.523 56.1659 154.864Z" fill="#E4B649" fill-opacity="0.1"/>
<path fill-rule="evenodd" clip-rule="evenodd" d="M49.4661 153.531C47.8903 153.219 46.1759 153.125 44.75 152.742C42.2588 155.197 39.7509 157.631 37.4512 159.976C38.7356 160.409 40.0256 160.881 41.5347 161.286C44.0481 158.825 46.7668 156.276 49.4688 153.531H49.4661Z" fill="#E4B649" fill-opacity="0.1"/>
<path fill-rule="evenodd" clip-rule="evenodd" d="M31.55 155.009C31.0646 154.595 30.6568 153.953 30.31 153.495C28.6538 155.247 26.9977 156.789 25.6161 158.339C25.5912 159.101 25.8575 159.774 26.1932 160.425C28.0074 158.629 29.6747 156.913 31.5473 155.009H31.55Z" fill="#E4B649" fill-opacity="0.1"/>
<path fill-rule="evenodd" clip-rule="evenodd" d="M63.8501 140.707C67.8116 139.869 71.7037 139.027 76.1729 138.144C77.2243 137.609 78.2147 137.363 79.4797 136.892C74.7359 138.05 70.4193 138.969 66.247 139.954C65.2705 140.613 64.6185 140.31 63.8501 140.707Z" fill="#E4B649" fill-opacity="0.1"/>
<path fill-rule="evenodd" clip-rule="evenodd" d="M90.8206 136.284C96.4299 135.799 102.106 135.813 108.284 135.531C109.443 135.424 110.753 135.327 112.107 134.916C105.654 135.531 99.7423 135.393 94.0386 135.735C92.6959 136.235 91.6722 136.055 90.8206 136.287V136.284Z" fill="#E4B649" fill-opacity="0.1"/>
<path fill-rule="evenodd" clip-rule="evenodd" d="M203.26 147.941C196.106 147.486 189.006 147.232 182.595 146.818C177.458 151.958 172.381 157.187 167.426 162.509C173.765 163.146 180.52 163.761 187.248 164.542C192.552 158.814 198.039 153.131 203.257 147.938L203.26 147.941Z" fill="#E4B649" fill-opacity="0.1"/>
<path fill-rule="evenodd" clip-rule="evenodd" d="M179.477 146.639C173.074 146.537 166.996 146.407 161.289 146.162C156.659 150.913 151.566 155.887 147.08 160.63C152.479 161.159 158.343 161.57 164.399 162.064C169.304 156.886 174.472 151.652 179.477 146.642V146.639Z" fill="#E4B649" fill-opacity="0.1"/>
<path fill-rule="evenodd" clip-rule="evenodd" d="M158.541 146.14C152.887 146.002 147.574 146.01 142.334 145.886C137.884 150.121 133.446 154.626 129.135 159.267C134.056 159.534 139.146 159.89 144.453 160.511C148.87 155.79 153.894 150.794 158.543 146.137L158.541 146.14Z" fill="#E4B649" fill-opacity="0.1"/>
<path fill-rule="evenodd" clip-rule="evenodd" d="M139.892 145.734C134.902 145.632 130.249 145.72 125.733 145.574C121.464 149.666 117.311 153.743 113.274 157.791C117.527 157.979 121.977 158.514 126.743 159.03C131.087 154.599 135.523 150.022 139.892 145.734Z" fill="#E4B649" fill-opacity="0.1"/>
<path fill-rule="evenodd" clip-rule="evenodd" d="M123.556 145.472C119.081 145.557 115.186 145.348 111.105 145.386C107.083 149.268 103.171 153.004 99.3816 156.805C103.146 157.145 107.074 157.465 111.236 157.724C115.269 153.605 119.372 149.709 123.556 145.472Z" fill="#E4B649" fill-opacity="0.1"/>
<path fill-rule="evenodd" clip-rule="evenodd" d="M109.238 145.248C105.243 145.204 101.623 145.19 98.0078 145.061C94.3015 148.636 90.7173 152.17 87.1165 155.776C90.3456 156.4 93.8493 156.557 97.5168 156.811C101.451 152.907 105.143 149.136 109.24 145.248H109.238Z" fill="#E4B649" fill-opacity="0.1"/>
<path fill-rule="evenodd" clip-rule="evenodd" d="M96.3214 145.102C92.948 145.102 89.5191 145.254 86.5952 145.174C83.2107 148.338 79.743 151.726 76.3169 154.971C79.2603 155.145 82.2897 155.39 85.4883 155.768C88.9476 152.184 92.6844 148.672 96.3214 145.102Z" fill="#E4B649" fill-opacity="0.1"/>
<path fill-rule="evenodd" clip-rule="evenodd" d="M221.186 128.876C213.66 128.956 206.397 129.064 199.611 129.232C194.66 134.193 189.722 138.963 184.845 143.882C191.519 144.106 198.541 144.44 205.59 144.743C210.875 139.407 216.176 133.997 221.186 128.879V128.876Z" fill="#E4B649" fill-opacity="0.1"/>
<path fill-rule="evenodd" clip-rule="evenodd" d="M196.444 129.456C189.819 129.478 183.408 129.768 177.444 129.964C172.755 134.519 168.034 139.074 163.487 143.598C169.288 143.541 175.505 143.634 181.769 143.924C186.557 138.892 191.45 134.177 196.444 129.456Z" fill="#E4B649" fill-opacity="0.1"/>
<path fill-rule="evenodd" clip-rule="evenodd" d="M174.428 130.014C168.555 130.13 162.868 130.361 157.497 130.601C153.217 134.715 148.859 138.958 144.495 143.419C149.641 143.455 155.037 143.557 160.602 143.643C165.137 139.052 169.859 134.411 174.425 130.014H174.428Z" fill="#E4B649" fill-opacity="0.1"/>
<path fill-rule="evenodd" clip-rule="evenodd" d="M155.031 130.629C149.688 130.932 145.075 131.026 140.2 131.302C135.873 135.322 131.945 139.182 127.786 143.199C132.43 143.221 137.154 143.171 142.215 143.27C146.304 139 150.67 134.756 155.031 130.629Z" fill="#E4B649" fill-opacity="0.1"/>
<path fill-rule="evenodd" clip-rule="evenodd" d="M137.701 131.512C133.263 131.597 128.916 131.721 124.591 131.975C120.585 135.835 116.751 139.499 113.034 143.105C116.909 143.301 121.079 143.328 125.617 143.229C129.631 139.195 133.648 135.416 137.701 131.512Z" fill="#E4B649" fill-opacity="0.1"/>
<path fill-rule="evenodd" clip-rule="evenodd" d="M122.465 132.041C118.235 132.331 114.515 132.491 110.944 132.634C107.163 136.116 103.296 139.628 99.8311 143.033C103.365 143.091 107.061 143.207 111.114 143.104C114.834 139.512 118.601 135.857 122.465 132.041Z" fill="#E4B649" fill-opacity="0.1"/>
<path fill-rule="evenodd" clip-rule="evenodd" d="M108.719 133.054C104.958 133.365 101.629 133.539 98.2359 133.741C94.7765 137.013 91.159 140.387 87.8162 143.764C91.0092 143.518 94.3687 143.474 97.8753 143.331C101.351 140.064 104.808 136.8 108.719 133.056V133.054Z" fill="#E4B649" fill-opacity="0.1"/>
<path fill-rule="evenodd" clip-rule="evenodd" d="M212.395 113.545C205.507 113.937 198.988 114.204 192.685 114.717C188.013 119.17 183.502 123.48 178.942 128.121C185.161 127.701 191.381 127.657 198.122 127.461C202.702 122.812 207.485 118.172 212.393 113.545H212.395Z" fill="#E4B649" fill-opacity="0.1"/>
<path fill-rule="evenodd" clip-rule="evenodd" d="M189.53 115.162C183.361 115.444 177.69 115.973 171.97 116.575C167.623 120.572 163.412 124.647 159.101 128.797C164.657 128.333 170.067 128.32 176.076 128.132C180.603 123.707 185.153 119.204 189.53 115.162Z" fill="#E4B649" fill-opacity="0.1"/>
<path fill-rule="evenodd" clip-rule="evenodd" d="M169.329 116.798C163.897 117.217 158.862 117.752 153.763 118.304C149.635 122.04 145.649 125.93 141.496 129.831C146.411 129.332 151.238 129.23 156.637 128.832C160.684 124.923 164.987 120.889 169.329 116.798Z" fill="#E4B649" fill-opacity="0.1"/>
<path fill-rule="evenodd" clip-rule="evenodd" d="M151.28 118.484C146.476 118.912 141.951 119.171 137.46 119.599C133.581 123.218 129.817 126.797 125.969 130.466C130.291 130.243 134.555 130.052 139.34 129.837C143.43 125.985 147.219 122.242 151.28 118.484Z" fill="#E4B649" fill-opacity="0.1"/>
<path fill-rule="evenodd" clip-rule="evenodd" d="M135.226 119.869C131.171 120.136 127.131 120.52 122.976 121.107C119.328 124.437 115.674 127.908 112.126 131.23C115.904 131.048 119.821 130.673 123.85 130.571C127.775 126.898 131.551 123.417 135.226 119.869Z" fill="#E4B649" fill-opacity="0.1"/>
<path fill-rule="evenodd" clip-rule="evenodd" d="M110.561 123.698C106.994 124.14 103.576 124.545 100.438 124.821C97.2149 127.782 93.7749 130.918 90.457 134.033C93.6112 133.752 96.8598 133.677 100.1 133.476C103.393 130.245 106.952 126.981 110.561 123.701V123.698Z" fill="#E4B649" fill-opacity="0.1"/>
<path fill-rule="evenodd" clip-rule="evenodd" d="M98.5132 124.986C95.456 125.254 92.5404 125.45 89.7108 125.806C86.748 128.658 83.7602 131.324 80.9111 134.11C83.4134 134.074 86.2708 133.87 88.9978 133.785C92.0438 130.946 95.3479 127.853 98.5132 124.986Z" fill="#E4B649" fill-opacity="0.1"/>
<path fill-rule="evenodd" clip-rule="evenodd" d="M204.944 100.917C198.746 101.648 192.771 102.352 186.748 103.069C182.481 107.036 178.317 110.882 173.934 114.916C179.843 114.149 185.389 113.815 191.711 113.134C196.03 108.957 200.519 105.022 204.944 100.917Z" fill="#E4B649" fill-opacity="0.1"/>
<path fill-rule="evenodd" clip-rule="evenodd" d="M183.979 103.359C178.461 103.961 172.919 104.741 167.65 105.401C163.742 109.087 159.669 112.809 155.588 116.624C160.748 116.053 165.731 115.653 171.298 115.19C175.673 111.093 179.851 107.282 183.979 103.356V103.359Z" fill="#E4B649" fill-opacity="0.1"/>
<path fill-rule="evenodd" clip-rule="evenodd" d="M165.129 105.696C160.23 106.253 155.425 106.913 150.499 107.652C146.745 111.172 143.158 114.395 139.238 118.001C143.724 117.573 148.304 117.212 153.123 116.892C157.126 113.054 161.265 109.244 165.129 105.696Z" fill="#E4B649" fill-opacity="0.1"/>
<path fill-rule="evenodd" clip-rule="evenodd" d="M148.354 107.986C144.004 108.651 139.657 109.225 135.529 109.782C131.942 113.071 128.191 116.37 124.626 119.609C128.721 119.19 132.752 118.749 137.002 118.268C140.933 114.712 144.653 111.346 148.354 107.986Z" fill="#E4B649" fill-opacity="0.1"/>
<path fill-rule="evenodd" clip-rule="evenodd" d="M122.224 112.613C118.482 113.214 115.017 113.628 111.763 114.047C108.4 117.124 105.008 120.153 101.82 123.251C105.021 122.918 108.298 122.586 111.932 122.123C115.314 118.98 118.681 115.896 122.224 112.616V112.613Z" fill="#E4B649" fill-opacity="0.1"/>
<path fill-rule="evenodd" clip-rule="evenodd" d="M109.349 114.972C106.037 115.413 103.085 115.876 100.075 116.434C96.946 119.22 93.875 121.979 90.5876 124.948C93.4117 124.578 96.4661 124.346 99.5204 124.093C102.719 121.036 105.97 118.009 109.352 114.969L109.349 114.972Z" fill="#E4B649" fill-opacity="0.1"/>
<path fill-rule="evenodd" clip-rule="evenodd" d="M218.241 86.2586C211.707 87.2822 205.538 88.1954 199.607 89.219C195.345 92.7615 191.303 96.4033 186.931 100.393C192.91 99.4796 198.946 98.8284 205.113 98.0311C209.51 93.9699 213.852 90.1156 218.238 86.2559L218.241 86.2586Z" fill="#E4B649" fill-opacity="0.1"/>
<path fill-rule="evenodd" clip-rule="evenodd" d="M196.79 89.5146C190.951 90.5189 185.375 91.3025 179.904 92.2488C176.115 95.7609 172.145 99.1489 168.122 102.829C173.429 102.062 178.908 101.389 184.448 100.548C188.507 96.8618 192.563 93.2696 196.79 89.5146Z" fill="#E4B649" fill-opacity="0.1"/>
<path fill-rule="evenodd" clip-rule="evenodd" d="M211.915 76.4619C205.976 77.5076 200.283 78.6553 194.718 79.6927C190.715 83.2324 186.801 86.6287 182.881 90.036C188.133 89.1366 193.833 88.2675 199.815 87.2522C203.765 83.7401 207.887 80.1093 211.918 76.4619H211.915Z" fill="#E4B649" fill-opacity="0.1"/>
<path fill-rule="evenodd" clip-rule="evenodd" d="M276.52 80.1782C267.975 81.3563 260.019 82.4516 252.451 83.2379C247.416 87.5722 242.805 92.0197 238.345 96.1912C245.691 95.576 253.514 94.6931 261.808 93.802C266.527 89.3021 271.435 84.7415 276.517 80.181L276.52 80.1782Z" fill="#E4B649" fill-opacity="0.1"/>
<path fill-rule="evenodd" clip-rule="evenodd" d="M45.943 164.277C44.1287 163.778 42.467 163.248 40.8802 162.82C38.4167 165.254 35.8701 167.737 33.4565 170.468C34.6827 171.105 36.1281 171.872 37.6538 172.568C40.2893 169.911 43.1245 167.006 45.943 164.277Z" fill="#E4B649" fill-opacity="0.1"/>
<path fill-rule="evenodd" clip-rule="evenodd" d="M52.7395 165.993C50.6117 165.494 48.6393 164.95 46.7445 164.459C43.8511 167.383 41.088 170.195 38.4553 172.866C39.9867 173.704 41.6733 174.488 43.5154 175.291C46.5115 172.184 49.6352 169.006 52.7395 165.993Z" fill="#E4B649" fill-opacity="0.1"/>
<path fill-rule="evenodd" clip-rule="evenodd" d="M60.6379 167.784C58.1966 167.35 55.9773 166.749 53.8384 166.139C50.5927 169.42 47.469 172.526 44.5505 175.561C46.5479 176.207 48.5564 176.965 50.9394 177.567C54.1436 174.295 57.4753 171.006 60.6407 167.784H60.6379Z" fill="#E4B649" fill-opacity="0.1"/>
<path fill-rule="evenodd" clip-rule="evenodd" d="M70.7212 169.795C67.8666 169.179 65.0953 168.528 62.3433 168.092C59.1058 171.301 55.713 174.899 52.4368 178.295C54.9141 178.968 57.3304 179.953 59.8299 180.93C63.3864 177.106 67.1426 173.472 70.7212 169.792V169.795Z" fill="#E4B649" fill-opacity="0.1"/>
<path fill-rule="evenodd" clip-rule="evenodd" d="M81.6766 171.605C78.3393 171.105 75.0186 170.606 72.2223 169.969C68.5715 173.589 64.8181 177.269 61.1895 181.063C64.0108 181.981 66.9874 182.779 70.0612 183.648C73.7397 179.708 77.6125 175.727 81.6766 171.605Z" fill="#E4B649" fill-opacity="0.1"/>
<path fill-rule="evenodd" clip-rule="evenodd" d="M94.1716 173.988C90.3294 173.395 86.8007 172.728 83.4328 172.019C79.2272 176.284 75.2879 180.381 71.6094 184.263C74.6998 185.146 78.0454 186.247 81.4798 187.281C85.7937 182.726 89.7829 178.541 94.1716 173.986V173.988Z" fill="#E4B649" fill-opacity="0.1"/>
<path fill-rule="evenodd" clip-rule="evenodd" d="M108.278 176.949C103.909 176.204 99.8504 175.362 95.8917 174.56C91.6583 179.057 87.4472 183.385 83.2083 187.861C86.8369 189.041 90.7124 190.192 94.6822 191.351C99.1708 186.462 103.845 181.562 108.278 176.949Z" fill="#E4B649" fill-opacity="0.1"/>
<path fill-rule="evenodd" clip-rule="evenodd" d="M126.125 179.534C121.109 178.536 116.307 177.788 111.841 177.137C107.258 181.7 102.608 186.694 98.053 191.569C102.278 192.576 106.839 193.66 111.388 195.161C116.398 189.665 121.167 184.561 126.127 179.534H126.125Z" fill="#E4B649" fill-opacity="0.1"/>
<path fill-rule="evenodd" clip-rule="evenodd" d="M144.475 182.779C138.825 181.678 133.26 180.434 128.377 179.471C123.372 184.721 118.307 189.897 113.524 195.263C118.343 196.734 123.442 198.339 129.007 199.653C134.106 193.988 139.246 188.493 144.475 182.781V182.779Z" fill="#E4B649" fill-opacity="0.1"/>
<path fill-rule="evenodd" clip-rule="evenodd" d="M166.289 186.669C159.744 185.532 153.253 184.547 147.646 182.933C142.367 188.749 136.971 194.615 131.964 200.326C137.529 201.934 143.374 203.57 149.563 205.126C155.222 198.783 160.64 192.78 166.291 186.669H166.289Z" fill="#E4B649" fill-opacity="0.1"/>
<path fill-rule="evenodd" clip-rule="evenodd" d="M191.004 191.889C183.314 190.302 176.243 188.884 169.596 187.378C163.889 193.641 158.125 199.898 152.493 206.423C159.429 208.341 165.826 210.733 173.166 212.606C179.231 205.639 185.225 198.703 191.004 191.889Z" fill="#E4B649" fill-opacity="0.1"/>
<path fill-rule="evenodd" clip-rule="evenodd" d="M219.569 198.419C210.576 196.659 202.605 194.995 194.569 193.249C188.571 200.127 182.587 207.129 176.595 213.974C184.099 216.452 192.047 218.877 200.386 221.36C206.983 213.329 213.253 205.777 219.569 198.419Z" fill="#E4B649" fill-opacity="0.1"/>
<path fill-rule="evenodd" clip-rule="evenodd" d="M516.892 158.66C511.23 154.14 505.688 149.58 500.622 145.417C492.438 150.043 484.291 154.353 476.062 159.239C480.654 164.026 485.2 169.044 490.696 174.179C499.568 168.942 508.434 163.736 516.89 158.66H516.892Z" fill="#E4B649" fill-opacity="0.1"/>
<path fill-rule="evenodd" clip-rule="evenodd" d="M239.154 149.384C236.902 147.119 234.702 145.011 232.413 143.207C229.225 145.436 225.905 147.812 222.626 150.071C224.662 152.215 226.584 154.519 228.651 157.109C232.18 154.475 235.7 151.859 239.157 149.384H239.154Z" fill="#E4B649" fill-opacity="0.1"/>
<path fill-rule="evenodd" clip-rule="evenodd" d="M150.01 65.7021C149.133 64.3668 148.328 62.9763 147.588 61.583C144.719 63.953 141.657 66.5188 138.649 69.0184C139.118 70.6214 139.781 72.0864 140.53 73.6562C143.676 71.0159 146.875 68.3314 150.007 65.7021H150.01Z" fill="#E4B649" fill-opacity="0.1"/>
<path fill-rule="evenodd" clip-rule="evenodd" d="M615.686 297.356C608.609 291.824 601.934 286.524 595.451 281.858C587.009 284.452 578.726 287.523 570.034 290.453C576.337 295.551 582.54 301.061 588.915 306.998C597.981 303.594 607.255 300.526 615.689 297.353L615.686 297.356Z" fill="#E4B649" fill-opacity="0.1"/>
<path fill-rule="evenodd" clip-rule="evenodd" d="M170.211 83.6464C169.515 82.8822 168.966 82.1373 168.419 81.4199C166.555 82.7718 164.68 84.0989 162.868 85.4232C163.287 86.2426 163.72 87.2055 164.205 88.0111C166.211 86.5626 168.142 85.1252 170.211 83.6436V83.6464Z" fill="#E4B649" fill-opacity="0.1"/>
<path fill-rule="evenodd" clip-rule="evenodd" d="M234.449 48.6819C232.768 47.9674 231.176 47.3356 229.6 46.7534C227.223 48.3674 224.848 50.0366 222.418 51.7968C223.744 52.5941 225.2 53.3032 226.856 54.2192C229.331 52.2907 231.892 50.4891 234.449 48.6847V48.6819Z" fill="#E4B649" fill-opacity="0.1"/>
<path fill-rule="evenodd" clip-rule="evenodd" d="M592 114.155C585.336 111.418 579.142 109.029 573.255 106.777C565.643 109.928 558.435 112.946 551.539 116.147C556.857 118.798 562.458 121.513 568.725 124.851C576.77 121.107 584.587 117.394 592 114.155Z" fill="#E4B649" fill-opacity="0.1"/>
<path fill-rule="evenodd" clip-rule="evenodd" d="M207.199 44.4162C206.184 43.9389 205.423 43.3126 204.619 42.8408C202.683 44.1044 200.838 45.5308 198.974 46.9075C199.656 47.5117 200.286 48.2263 201.11 48.7781C202.966 47.3628 205.079 45.8646 207.199 44.4162Z" fill="#E4B649" fill-opacity="0.1"/>
<path fill-rule="evenodd" clip-rule="evenodd" d="M164.838 33.9934C164.299 33.6016 163.711 33.3009 163.181 32.9395C161.786 34.0182 160.258 35.1328 158.918 36.1619C159.381 36.5813 159.783 37.0062 160.196 37.4917C161.725 36.3413 163.312 35.1687 164.838 33.9934Z" fill="#E4B649" fill-opacity="0.1"/>
<path fill-rule="evenodd" clip-rule="evenodd" d="M62.5567 140.23C62.3292 139.65 62.0296 139.071 61.8742 138.514C60.759 139.275 59.7187 140.144 58.6035 140.939C58.6895 141.612 58.8449 142.249 59.0002 142.887C60.2569 141.995 61.3749 141.113 62.5567 140.23Z" fill="#E4B649" fill-opacity="0.1"/>
<path fill-rule="evenodd" clip-rule="evenodd" d="M620.804 203.967C616.06 201.702 612.221 199.564 608.17 197.517C602.223 199.197 596.527 200.717 590.851 202.361C594.333 204.461 598.275 206.908 602.447 209.226C608.664 207.537 614.754 205.7 620.804 203.967Z" fill="#E4B649" fill-opacity="0.1"/>
<path fill-rule="evenodd" clip-rule="evenodd" d="M271.707 37.7234C270.042 37.2323 268.342 36.8957 266.902 36.3936C264.585 37.9027 262.139 39.4698 259.947 40.9238C261.342 41.5363 262.649 42.0577 264.191 42.6316C266.497 41.0507 269.193 39.307 271.707 37.7234Z" fill="#E4B649" fill-opacity="0.1"/>
<path fill-rule="evenodd" clip-rule="evenodd" d="M210.37 0.416604C209.313 0.220718 208.256 0.0524203 207.219 0C205.476 1.10359 203.818 2.36443 202.15 3.57286C203.138 3.74391 204.131 3.93152 205.127 4.14948C206.908 2.84725 208.639 1.60848 210.37 0.416604Z" fill="#E4B649" fill-opacity="0.1"/>
<path fill-rule="evenodd" clip-rule="evenodd" d="M184.055 46.1187C183.095 45.8152 182.149 45.6 181.264 45.3296C179.774 46.4001 178.087 47.5754 176.523 48.6348C177.413 48.9493 178.234 49.2418 179.13 49.5618C180.817 48.392 182.373 47.2912 184.057 46.1187H184.055Z" fill="#E4B649" fill-opacity="0.1"/>
<path fill-rule="evenodd" clip-rule="evenodd" d="M22.1544 169.768C21.8825 169.326 21.68 168.979 21.4054 168.537C20.526 169.139 19.6493 169.746 18.842 170.311C19.039 170.766 19.1666 171.194 19.4413 171.564C20.3234 170.993 21.2778 170.377 22.1544 169.768Z" fill="#E4B649" fill-opacity="0.1"/>
<path fill-rule="evenodd" clip-rule="evenodd" d="M161.437 70.7339C160.477 70.4194 159.578 70.0579 158.696 69.8262C157.292 70.778 155.75 71.7988 154.269 72.7479C155.159 73.0624 156.05 73.3935 156.879 73.7687C158.352 72.7672 159.897 71.7602 161.437 70.7339Z" fill="#E4B649" fill-opacity="0.1"/>
<path fill-rule="evenodd" clip-rule="evenodd" d="M310.769 83.9003C308.686 83.3568 306.689 82.8022 304.769 82.2891C302.242 83.6492 299.781 84.9432 297.115 86.3668C299.087 86.8165 301.024 87.4318 302.957 88.0029C305.471 86.6013 308.223 85.2108 310.769 83.9003Z" fill="#E4B649" fill-opacity="0.1"/>
<path fill-rule="evenodd" clip-rule="evenodd" d="M15.4266 160.229C15.1686 159.78 14.8329 159.391 14.5722 159.043C13.7094 159.592 12.9132 160.166 12.1143 160.809C12.3723 161.192 12.6358 161.592 12.8938 162.039C13.7649 161.424 14.6332 160.809 15.4266 160.229Z" fill="#E4B649" fill-opacity="0.1"/>
<path fill-rule="evenodd" clip-rule="evenodd" d="M138.195 92.2792C137.305 91.9674 136.406 91.5563 135.587 91.228C134.209 92.1468 132.966 92.9882 131.651 93.8849C132.4 94.2325 133.154 94.6243 133.981 95.0437C135.363 94.0891 136.75 93.2559 138.195 92.2764V92.2792Z" fill="#E4B649" fill-opacity="0.1"/>
<path fill-rule="evenodd" clip-rule="evenodd" d="M149.497 55.7585C148.717 55.5571 147.955 55.4799 147.181 55.3364C146.046 56.1089 144.856 56.9725 143.713 57.6981C144.351 57.836 145.128 58.0347 145.777 58.2554C147.036 57.3863 148.232 56.5476 149.497 55.7613V55.7585Z" fill="#E4B649" fill-opacity="0.1"/>
<path fill-rule="evenodd" clip-rule="evenodd" d="M721.616 254.802C715.286 252.898 708.592 250.638 701.826 248.677C695.559 250.018 688.79 250.972 682.426 252.145C688.51 254.004 695.098 256.184 701.185 258.344C708.295 257.15 714.872 256.049 721.616 254.804V254.802Z" fill="#E4B649" fill-opacity="0.1"/>
<path fill-rule="evenodd" clip-rule="evenodd" d="M235.102 11.792C233.706 11.8472 232.45 11.861 231.193 11.872C229.72 12.8073 228.183 13.784 226.596 14.8296C227.847 14.7717 228.993 14.8765 230.255 14.8655C231.842 13.8226 233.432 12.7687 235.099 11.792H235.102Z" fill="#E4B649" fill-opacity="0.1"/>
<path fill-rule="evenodd" clip-rule="evenodd" d="M32.7963 165.742C32.3691 165.425 31.9419 165.096 31.6617 164.793C30.8655 165.301 29.9944 165.88 29.2676 166.344C29.5478 166.683 29.9001 166.973 30.2524 167.337C31.1235 166.749 31.9252 166.258 32.7963 165.745V165.742Z" fill="#E4B649" fill-opacity="0.1"/>
<path fill-rule="evenodd" clip-rule="evenodd" d="M408.96 131.925C405.809 131.158 402.433 130.7 399.218 130.005C396.049 131.106 393.167 132.069 390.335 133.2C393.253 133.735 396.413 134.488 399.711 135.241C402.793 134.105 405.959 133.012 408.958 131.925H408.96Z" fill="#E4B649" fill-opacity="0.1"/>
<path fill-rule="evenodd" clip-rule="evenodd" d="M398.203 189.085C395.359 187.311 392.546 185.546 389.717 184.009C385.755 185.529 381.716 187.317 377.649 189.041C380.282 190.793 382.898 192.501 385.541 194.493C389.95 192.495 394.125 190.821 398.203 189.083V189.085Z" fill="#E4B649" fill-opacity="0.1"/>
<path fill-rule="evenodd" clip-rule="evenodd" d="M23.8134 180.207C23.5416 179.427 23.3446 178.629 23.1449 177.948C22.0324 178.745 20.8423 179.628 19.6494 180.547C19.7687 181.344 19.8908 182.249 20.0794 183.066C21.2778 182.125 22.5456 181.167 23.8134 180.205V180.207Z" fill="#E4B649" fill-opacity="0.1"/>
<path fill-rule="evenodd" clip-rule="evenodd" d="M329.351 118.5C326.787 117.038 324.424 115.733 322.229 114.461C318.856 116.329 315.341 118.312 311.829 120.332C314.037 121.687 316.01 123.314 318.47 124.713C322.204 122.619 325.769 120.536 329.351 118.5Z" fill="#E4B649" fill-opacity="0.1"/>
</svg>
