<svg width="78" height="91" viewBox="0 0 78 91" fill="none" xmlns="http://www.w3.org/2000/svg">
<g filter="url(#filter0_d_2118_1590)">
<path d="M61.9709 48.9497C61.6549 49.1204 61.0027 49.5341 60.3042 49.8399C53.5672 52.7817 46.791 55.6346 40.1003 58.6747C38.0356 59.6134 36.5982 59.3882 34.9766 57.8154C29.3563 52.3585 23.6243 47.0166 17.6523 41.3653C21.5335 32.9643 25.4419 24.5016 29.2553 16.2451C40.2999 27.2845 51.0938 38.0763 61.9709 48.9497Z" fill="white"/>
<path d="M16.3251 45.5791C21.6959 50.7053 27.1214 55.8849 32.9009 61.401C27.5372 66.7252 22.3683 71.8905 17.1519 77.0096C15.8226 78.3145 14.1297 78.6772 12.267 78.5646C6.5647 78.2174 0.0807388 71.4259 0.00114454 65.7461C-0.0321187 63.4017 0.66047 61.3548 1.97199 59.4572C3.38687 57.4103 13.5084 47.5348 16.3251 45.5791Z" fill="white"/>
<path d="M76.2346 43.7836C76.4152 46.6958 75.6406 48.2165 73.9359 49.1315C72.268 50.0263 70.5038 50.0038 68.9357 48.9027C67.8962 48.1726 66.9827 47.2481 66.0774 46.3461C55.1778 35.4916 44.29 24.6264 33.4034 13.7577C32.611 12.9659 31.7782 12.1931 31.113 11.3006C29.6185 9.29402 29.685 6.82396 31.1676 5.12194C32.7761 3.27769 35.4384 2.97782 37.7086 4.42382C38.2444 4.76518 38.741 5.18594 39.1912 5.63396C50.8844 17.2802 62.5895 28.9158 74.2245 40.6214C75.2818 41.6846 75.8758 43.204 76.2346 43.7836Z" fill="white"/>
<path d="M24.8516 74.9689C28.4678 71.1524 31.503 67.8515 34.669 64.6809C35.3865 63.9627 36.5317 63.3724 37.5272 63.2894C39.921 63.0915 42.3433 63.2053 44.7525 63.2385C46.5606 63.2634 47.3043 64.3088 47.2971 66.0274C47.2876 68.2722 47.3779 70.5195 47.2793 72.7596C47.2045 74.4829 47.6559 75.8626 48.9983 77.004C49.723 77.6203 50.374 78.3718 50.8896 79.1706C52.9103 82.3009 52.4375 86.3461 49.8287 88.8671C47.2176 91.3917 43.2105 91.7153 40.0838 89.6257C39.5539 89.2713 39.0704 88.8351 38.6119 88.3883C34.1332 84.0313 29.6617 79.6625 24.8516 74.9689ZM39.6228 67.3383C40.768 68.6634 41.5628 70.0181 43.2865 70.6605C43.422 67.0135 43.422 67.0135 39.6228 67.3383Z" fill="white"/>
<path d="M62.5333 17.055C61.9702 16.1993 61.3085 15.5427 61.1184 14.7699C61.0139 14.3444 61.6174 13.6415 62.0462 13.2053C64.8558 10.3489 67.6998 7.52562 70.545 4.70354C71.3706 3.88453 72.2818 3.1236 73.4413 4.12395C74.5948 5.11956 74.122 6.12465 73.2488 7.00411C70.3121 9.96131 67.3636 12.9067 64.3901 15.8259C63.9577 16.2514 63.3637 16.5146 62.5333 17.055Z" fill="white"/>
<path d="M56.8738 6.8296C56.8738 8.25546 57.0734 9.72162 56.7907 11.0894C56.6469 11.7863 55.7203 12.5307 54.9814 12.8021C54.6535 12.923 53.4584 11.9475 53.4346 11.4319C53.2778 8.1156 53.2636 4.78505 53.3943 1.46753C53.4156 0.925871 54.5395 -0.0958155 54.8863 0.00611608C55.6371 0.227758 56.6731 0.962613 56.774 1.6145C57.039 3.31652 56.8631 5.0861 56.8631 6.82842C56.8667 6.8296 56.8703 6.8296 56.8738 6.8296Z" fill="white"/>
<path d="M71.2573 24.5542C69.8282 24.5554 68.3634 24.7403 66.983 24.4819C66.237 24.3421 65.6335 23.4425 64.9658 22.8854C65.5467 22.2477 66.098 21.0957 66.7157 21.0589C69.8805 20.8705 73.0678 20.8705 76.2326 21.0542C76.8551 21.0909 77.4134 22.23 78.0015 22.8605C77.3421 23.4247 76.7434 24.3563 76.0116 24.4748C74.4625 24.7273 72.8457 24.5531 71.2573 24.5542Z" fill="white"/>
</g>
<defs>
<filter id="filter0_d_2118_1590" x="-4" y="-0.000976562" width="86.001" height="99.002" filterUnits="userSpaceOnUse" color-interpolation-filters="sRGB">
<feFlood flood-opacity="0" result="BackgroundImageFix"/>
<feColorMatrix in="SourceAlpha" type="matrix" values="0 0 0 0 0 0 0 0 0 0 0 0 0 0 0 0 0 0 127 0" result="hardAlpha"/>
<feOffset dy="4"/>
<feGaussianBlur stdDeviation="2"/>
<feComposite in2="hardAlpha" operator="out"/>
<feColorMatrix type="matrix" values="0 0 0 0 0 0 0 0 0 0 0 0 0 0 0 0 0 0 0.25 0"/>
<feBlend mode="normal" in2="BackgroundImageFix" result="effect1_dropShadow_2118_1590"/>
<feBlend mode="normal" in="SourceGraphic" in2="effect1_dropShadow_2118_1590" result="shape"/>
</filter>
</defs>
</svg>
