<svg width="109" height="84" viewBox="0 0 109 84" fill="none" xmlns="http://www.w3.org/2000/svg">
<path d="M-8.53685e-05 54.8699C0.634198 52.3254 0.964139 49.6599 1.95112 47.2589C5.84215 37.8098 12.9586 31.9862 23.1641 30.5028C34.1175 28.9125 42.9975 32.8587 49.5707 41.6773C55.5722 49.7274 56.0529 61.8983 50.8563 70.4607C46.715 77.2864 40.796 81.7872 32.9087 83.3662C23.1612 85.3197 14.6339 82.7161 7.62553 75.7017C3.26804 71.3389 0.856055 65.9909 0.167729 59.8914C0.136442 59.6184 0.056801 59.3538 -0.00292969 59.0836C-8.53685e-05 57.679 -8.53685e-05 56.2745 -8.53685e-05 54.8699ZM23.5196 59.5086C23.1697 59.0836 22.9678 58.788 22.7175 58.5403C20.7919 56.6207 18.8606 54.7123 16.9265 52.8011C15.6892 51.5767 14.23 50.9828 12.4836 51.4134C8.93676 52.286 7.87015 56.3786 10.5154 59.047C13.5702 62.1291 16.679 65.1634 19.7651 68.2146C22.3534 70.776 24.7483 70.7872 27.3139 68.2483C32.7323 62.8863 38.1508 57.5214 43.5663 52.1565C43.8678 51.8582 44.1722 51.5598 44.4367 51.2333C45.4464 49.9892 45.6967 48.5818 45.2104 47.0759C44.1665 43.8446 40.1987 42.9805 37.6445 45.4687C33.6994 49.3108 29.8055 53.2036 25.8946 57.0823C25.1494 57.8198 24.4241 58.5854 23.5196 59.5086Z" fill="white"/>
<path d="M39.8428 29.8415C40.1045 29.5572 40.2836 29.3433 40.4799 29.1491C44.9938 24.6793 49.5078 20.2067 54.0274 15.7454C56.0127 13.7863 57.9497 13.7919 59.9436 15.7622C72.3647 28.0485 84.7745 40.3405 97.2042 52.6183C98.1883 53.5922 98.7657 54.7012 98.7685 56.0664C98.7799 62.5262 98.8908 68.9888 98.7372 75.443C98.6292 79.9325 95.0425 83.4171 90.5143 83.5072C84.0975 83.6367 77.6722 83.6479 71.2526 83.5156C66.3632 83.4143 62.8761 79.7186 62.8192 74.8491C62.7708 70.6354 62.8078 66.4246 62.8078 62.2109C62.805 58.6193 61.4994 56.7194 58.163 55.3261C57.8672 55.2022 57.5799 54.7491 57.5287 54.4141C56.0042 44.374 50.893 36.6588 42.2491 31.2236C41.4982 30.7563 40.716 30.3425 39.8428 29.8415Z" fill="white"/>
<path d="M56.9456 8.26394C56.536 8.8494 56.354 9.20969 56.0809 9.4799C49.9457 15.571 43.7992 21.648 37.6583 27.7362C36.8619 28.5244 36.0143 29.1746 34.8168 29.1971C33.2837 29.2252 32.1318 28.5919 31.452 27.2352C30.7722 25.8813 30.9599 24.5809 31.9099 23.3987C32.1289 23.1257 32.3878 22.8808 32.6381 22.6331C39.709 15.6329 46.78 8.62986 53.8538 1.63243C56.0525 -0.543352 57.8786 -0.548981 60.0715 1.62118C65.2397 6.73273 70.4078 11.8443 75.5645 16.9671C75.8291 17.2289 75.9855 17.5948 76.1931 17.9128C76.324 17.8228 76.4576 17.7327 76.5885 17.6426C76.5885 15.8693 76.5885 14.0961 76.5885 12.3228C76.5885 11.3038 76.5657 10.2849 76.6027 9.2688C76.6795 7.23938 78.1358 5.78698 80.0842 5.7532C82.0979 5.71942 83.6595 7.12679 83.7249 9.20969C83.8045 11.8386 83.759 14.4732 83.7619 17.105C83.7647 19.4215 83.7903 21.7381 83.7476 24.0546C83.7334 24.7864 83.9809 25.2902 84.4957 25.7997C92.1839 33.3826 99.8465 40.988 107.532 48.5737C108.695 49.7221 109.352 50.9859 108.798 52.6325C108.018 54.9463 105.202 55.8104 103.248 54.327C102.856 54.0286 102.512 53.6684 102.159 53.3222C87.4111 38.7362 72.6633 24.1447 57.9184 9.54464C57.6226 9.2491 57.4064 8.87474 56.9456 8.26394Z" fill="white"/>
</svg>
