<svg width="93" height="90" viewBox="0 0 93 90" fill="none" xmlns="http://www.w3.org/2000/svg">
<path d="M25.3162 23.9206C25.2996 24.2254 25.273 24.4781 25.2741 24.7308C25.2785 27.0737 25.294 29.4176 25.2951 31.7605C25.2985 38.2926 25.2996 44.8247 25.2951 51.3569C25.2907 58.2392 25.2774 65.1215 25.2719 72.0038C25.2685 76.3216 25.284 80.6394 25.2641 84.9561C25.2541 87.2225 23.8423 89.1199 21.7656 89.7538C19.629 90.4066 17.3228 89.6507 16.0772 87.8432C15.726 87.3334 15.4899 86.7449 15.2262 86.2373C14.9613 86.7548 14.7275 87.36 14.3706 87.8797C13.145 89.664 10.8211 90.4199 8.72887 89.7671C6.6621 89.1221 5.17381 87.1472 5.17381 84.9894C5.1716 76.4646 5.18157 67.9398 5.186 59.4139C5.18711 56.8671 5.18157 54.3215 5.18933 51.7747C5.19044 51.5031 5.14167 51.3502 4.84247 51.2549C3.29544 50.7584 2.25042 49.6878 1.52345 48.2681C0.588143 46.4417 0.214684 44.4634 0.121597 42.4497C0.00634548 39.945 -0.0136019 37.4337 0.00523729 34.9268C0.0296174 31.7727 0.0606465 28.6153 0.233523 25.4667C0.325503 23.7854 0.659066 22.1086 1.01147 20.4562C1.17659 19.6837 1.57332 18.9335 1.98667 18.2452C2.789 16.912 4.02019 16.1284 5.57498 16.0686C8.44961 15.9589 11.3276 15.8935 14.2044 15.9012C17.5611 15.9101 20.9189 15.9755 24.2734 16.1052C25.4037 16.1495 26.5285 16.4432 27.6478 16.6659C31.9498 17.5204 36.2484 18.3971 40.5515 19.246C40.8175 19.2981 41.1411 19.2382 41.3959 19.1318C44.8158 17.711 48.2246 16.2636 51.6456 14.8473C52.1852 14.6234 52.7626 14.4527 53.3389 14.3663C55.8079 13.9928 57.6253 16.2902 56.7233 18.6242C56.2844 19.758 55.4333 20.4872 54.334 20.9494C51.9038 21.969 49.4724 22.9875 47.0422 24.0071C45.3943 24.6986 43.7254 25.347 42.1063 26.1017C40.843 26.6902 39.5697 26.6758 38.2664 26.4242C34.1218 25.6218 29.9816 24.7995 25.8392 23.9871C25.6985 23.9594 25.5511 23.9495 25.3162 23.9206Z" fill="white"/>
<path d="M7.68663 7.56302C7.66447 3.43584 11.0101 0.0312467 15.1192 0.000215245C19.3281 -0.0308162 22.7114 3.2973 22.7325 7.48987C22.7535 11.6459 19.3902 15.0505 15.2478 15.0649C11.101 15.0793 7.70769 11.7135 7.68663 7.56302Z" fill="white"/>
<path d="M67.0247 73.4153C62.4513 73.4153 58.146 73.4153 53.629 73.4153C53.629 77.4482 53.6423 81.3992 53.6246 85.3502C53.609 88.9155 54.1753 88.9221 50.0706 88.9022C46.4568 88.8844 42.8419 88.8379 39.2315 88.9243C37.5614 88.9642 36.9176 88.4245 36.9309 86.6879C36.9951 78.1575 36.9464 69.6261 36.9885 61.0958C36.9918 60.4574 37.2068 59.614 37.6423 59.2151C45.1115 52.3771 52.6305 45.5934 60.2803 38.6689C60.7535 39.069 61.1979 39.4248 61.6201 39.806C68.5618 46.0821 75.4924 52.3715 82.454 58.6277C83.3018 59.3891 83.7328 60.1516 83.724 61.354C83.6664 69.7658 83.6974 78.1786 83.6907 86.5903C83.6885 88.7226 83.5123 88.8911 81.3369 88.8955C77.25 88.9033 73.1619 88.8567 69.0749 88.9188C67.5666 88.941 66.966 88.4467 66.9948 86.8652C67.0779 82.4354 67.0247 78.0024 67.0247 73.4153ZM60.318 54.4473C58.5992 54.4473 56.8804 54.4706 55.1627 54.4385C54.1177 54.4185 53.6268 54.8784 53.6301 55.9147C53.6368 58.2254 53.6401 60.5372 53.6279 62.848C53.6223 63.964 54.1476 64.4494 55.2636 64.4428C58.6413 64.4206 62.0191 64.4206 65.3957 64.4428C66.5161 64.4494 67.0292 63.9451 67.0247 62.838C67.0137 60.586 66.9993 58.334 67.0314 56.0831C67.0491 54.8574 66.4917 54.3952 65.2949 54.434C63.637 54.485 61.977 54.4451 60.318 54.4473Z" fill="white"/>
<path d="M60.3123 35.6433C53.2908 42.0147 46.4068 48.2609 39.5239 54.5071C37.8571 56.0199 36.1461 57.4872 34.5437 59.0643C33.3668 60.2224 32.4736 60.1049 31.4696 58.867C30.4633 57.6268 29.3729 56.451 28.2536 55.3106C27.325 54.3652 27.4502 53.6371 28.4043 52.7937C31.4208 50.1261 34.3254 47.3266 37.4161 44.7499C38.839 43.563 39.3554 42.3184 39.2756 40.4997C39.1327 37.2481 39.2745 33.9853 39.218 30.7292C39.1947 29.3794 39.6358 28.7599 41.062 28.8485C42.4783 28.9361 43.9056 28.9183 45.3241 28.8541C46.583 28.7964 47.0174 29.386 46.9952 30.5564C46.9653 32.2032 46.9875 33.8512 46.9875 35.958C47.7765 35.3086 48.2597 34.9373 48.7129 34.5317C52.1139 31.494 55.5416 28.485 58.8872 25.3874C60.0064 24.3512 60.8099 24.4265 61.9003 25.4162C71.946 34.5273 82.0172 43.6106 92.1106 52.6696C93.1822 53.6315 93.3395 54.3929 92.2768 55.4458C91.1431 56.5696 90.0593 57.7565 89.0608 59.0011C88.0158 60.3033 87.188 59.9387 86.1374 58.9834C78.0765 51.6489 69.9812 44.3532 61.8959 37.0475C61.4172 36.6152 60.9307 36.1908 60.3123 35.6433Z" fill="white"/>
</svg>
