<svg width="20" height="20" viewBox="0 0 20 20" fill="none" xmlns="http://www.w3.org/2000/svg">
<path d="M6.36364 0C2.84591 0 0 2.84591 0 6.36364V13.6364C0 17.1541 2.84591 20 6.36364 20H13.6364C17.1541 20 20 17.1541 20 13.6364V6.36364C20 2.84591 17.1541 0 13.6364 0H6.36364ZM6.36364 0.909091H13.1818V19.0909H6.36364C3.33409 19.0909 0.909091 16.6659 0.909091 13.6364V6.36364C0.909091 3.33409 3.33409 0.909091 6.36364 0.909091ZM14.0909 0.931818C16.9045 1.16136 19.0909 3.48773 19.0909 6.36364V6.81818H14.0909V0.931818ZM14.0909 7.72727H19.0909V12.2727H14.0909V7.72727ZM14.0909 13.1818H19.0909V13.6364C19.0962 15.0054 18.5839 16.3259 17.6566 17.3331C16.7294 18.3404 15.4557 18.96 14.0909 19.0677V13.1818Z" fill="white"/>
<path d="M7.27284 5.90912C5.77193 5.90912 4.54557 7.13548 4.54557 8.63639C4.54574 8.99382 4.61642 9.34771 4.75353 9.67779C4.89065 10.0079 5.09153 10.3077 5.34466 10.56C4.32102 11.2046 3.63647 12.3418 3.63647 13.6364C3.63647 13.7569 3.68436 13.8726 3.76961 13.9578C3.85485 14.043 3.97047 14.0909 4.09102 14.0909C4.21157 14.0909 4.32719 14.043 4.41243 13.9578C4.49768 13.8726 4.54557 13.7569 4.54557 13.6364C4.54503 13.1046 4.70068 12.5844 4.9932 12.1402C5.28572 11.6961 5.70223 11.3477 6.19102 11.1382C6.53234 11.2874 6.90081 11.3644 7.27329 11.3644C7.64578 11.3644 8.01425 11.2874 8.35557 11.1382C9.32284 11.5564 10.0001 12.5109 10.0001 13.6364C10.0001 13.7569 10.048 13.8726 10.1332 13.9578C10.2185 14.043 10.3341 14.0909 10.4547 14.0909C10.5752 14.0909 10.6908 14.043 10.7761 13.9578C10.8613 13.8726 10.9092 13.7569 10.9092 13.6364C10.9092 12.3418 10.2247 11.2046 9.20102 10.56C9.45415 10.3077 9.65502 10.0079 9.79214 9.67779C9.92926 9.34771 9.99993 8.99382 10.0001 8.63639C10.0001 7.13548 8.77375 5.90912 7.27284 5.90912ZM7.27284 6.81821C8.28238 6.81821 9.09102 7.62685 9.09102 8.63639C9.09102 9.64594 8.28238 10.4546 7.27284 10.4546C6.26329 10.4546 5.45466 9.64594 5.45466 8.63639C5.45466 7.62685 6.26329 6.81821 7.27284 6.81821Z" fill="white"/>
</svg>
