<svg width="1920" height="1083" viewBox="0 0 1920 1083" fill="none" xmlns="http://www.w3.org/2000/svg">
<g clip-path="url(#clip0_703_514)">
<rect width="1920" height="1083" fill="#0A0909"/>
<rect width="1920" height="1083" fill="black"/>
<g filter="url(#filter0_f_703_514)">
<path d="M1264.16 413.719C1382.22 365.665 1427.63 230.513 1475.68 348.574C1523.73 466.635 1291.5 782.381 1173.44 830.435C1055.38 878.488 1096.2 640.654 1048.14 522.593C1000.09 404.532 1146.09 461.773 1264.16 413.719Z" fill="url(#paint0_linear_703_514)"/>
</g>
<path d="M1189.38 498.907C1189.38 498.907 1176.14 505.207 1175.02 518.414C1173.9 531.622 1207.4 567.83 1207.4 567.83L1299.27 510.026L1265.56 459.16L1189.38 498.907Z" fill="#C7DCF9"/>
<path d="M1211.29 509.842C1211.29 509.842 1201.96 520.818 1199.65 532.422C1197.34 544.025 1198.32 564.403 1199.34 571.991C1215.24 584.831 1273.61 569.237 1273.61 569.237L1326.1 498.337C1326.1 498.337 1315.19 480.642 1309.95 475.943C1304.7 471.244 1288.38 466.063 1270.53 474.683C1260.8 490.69 1211.29 509.842 1211.29 509.842Z" fill="#E1ECFF"/>
<g style="mix-blend-mode:multiply">
<path d="M1207.18 515.47C1207.18 515.47 1229.79 521.08 1254.05 509.776C1278.31 498.472 1281 471.062 1281 471.062L1270.52 474.687L1211.29 509.842L1207.18 515.47Z" fill="#E1ECFF"/>
</g>
<path d="M1302.88 592.539C1302.88 592.539 1330.87 590.832 1338.87 592.31C1346.87 593.789 1370.86 639.486 1379.77 643.415C1388.69 647.343 1395.5 639.359 1404.61 633.158C1413.72 626.956 1421.96 619.639 1422.05 616.812C1422.13 613.984 1417.34 603.032 1413.71 601.002C1410.07 598.973 1399.94 599.495 1394.77 603.316C1385.38 582.243 1371.98 551.493 1361.35 547.853C1350.72 544.212 1319.24 544.261 1319.24 544.261L1302.88 592.539Z" fill="#E1ECFF"/>
<g style="mix-blend-mode:multiply" opacity="0.51">
<path d="M1330.93 569.93C1330.93 569.93 1353.88 570.887 1360.74 578.941C1367.61 586.996 1383.58 638.037 1397.62 638.324C1398.98 655.115 1370.48 663.135 1370.48 663.135L1295.98 590.798L1330.93 569.93Z" fill="#E1ECFF"/>
</g>
<path d="M1227.42 593.36C1227.42 593.36 1247.06 628.288 1263.32 637.079C1279.59 645.87 1307.81 643.167 1316.05 649.087C1324.28 655.007 1324.72 686.086 1333.07 693.763C1341.42 701.44 1352.72 705.726 1362.91 704.11C1373.1 702.495 1380.97 697.024 1380.77 692.403C1380.56 687.782 1379.88 683.809 1374.89 681.673C1369.91 679.537 1362.99 677.946 1362.5 675.097C1362.01 672.247 1353.62 628.935 1350.56 617.216C1347.5 605.496 1328.82 590.166 1305.63 583.373C1283 566.876 1250.6 576.782 1250.6 576.782L1227.42 593.36Z" fill="#E1ECFF"/>
<g style="mix-blend-mode:multiply">
<path d="M1233.07 602.677C1233.07 602.677 1252.89 602.354 1270.1 593.367C1265.49 575.549 1254.68 570.925 1254.68 570.925L1227.42 593.36L1233.07 602.677Z" fill="#E1ECFF"/>
</g>
<path d="M1247.69 412.372C1231.66 405.136 1199.06 404.529 1180.73 430.691C1162.4 456.853 1174.1 481.914 1183.32 493.327C1192.97 505.306 1224.52 522.48 1255.6 502.255C1286.68 482.031 1286.57 429.936 1247.69 412.372Z" fill="#E1ECFF"/>
<path d="M1246.05 427.724C1260.01 430.079 1270.23 448.752 1266.86 467.518C1263.49 486.284 1248.44 499.764 1230.61 501.067C1212.77 502.37 1194.21 491.386 1192.77 468.604C1191.39 446.709 1215.74 422.614 1246.05 427.724Z" fill="#1C3177"/>
<g style="mix-blend-mode:multiply">
<path d="M1216.19 574.549C1233.53 565.035 1218.86 546.971 1236.42 541.454C1260.17 543.213 1266.59 541.574 1266.59 541.574C1266.59 541.574 1224.25 584.135 1216.19 574.549Z" fill="#E1ECFF"/>
</g>
<path d="M1227.69 522.813L1262.64 597.451L1304.71 593.605L1341.62 566.605L1350.75 530.97L1317.22 449.189L1306.33 489.268L1273.14 519.518L1227.69 522.813Z" fill="#FF97C9"/>
<path d="M1216.19 574.549C1226.02 573.083 1230.61 566.313 1233.41 563.258C1234.84 561.699 1234.45 560.443 1233.4 556.293C1232.35 552.144 1234.72 547.654 1238.24 545.564C1240.6 550.811 1243.13 551.666 1245.01 551.286C1246.88 550.906 1248.07 539.442 1254.28 539.124C1260.49 538.806 1266.01 546.677 1267.12 550.719C1268.22 554.76 1265.01 566.719 1260.53 575.261C1256.06 583.802 1249.66 594.436 1233.91 598.69C1218.16 602.943 1208.54 595.405 1202.61 585.454C1200.61 582.095 1199.65 577.333 1199.35 571.975C1199.35 571.975 1203.24 576.452 1216.19 574.549Z" fill="#E1ECFF"/>
<path d="M1328.77 477.355C1328.77 477.355 1331.09 483.409 1329.97 485.904C1328.85 488.4 1327.24 490.51 1326.17 493.681C1325.1 496.853 1327.78 508.353 1333.55 509.97C1339.32 511.586 1343.63 506.046 1344.92 502.92C1346.2 499.795 1344.84 491.907 1342.27 486.518C1339.69 481.129 1335.21 476.487 1328.77 477.355Z" fill="#E1ECFF"/>
<path d="M1330.07 400.107L1331.51 402.582C1331.59 402.732 1331.72 402.859 1331.86 402.952C1332.01 403.044 1332.18 403.099 1332.35 403.113L1335.2 403.322C1335.4 403.337 1335.6 403.408 1335.76 403.526C1335.92 403.644 1336.04 403.806 1336.12 403.991C1336.19 404.177 1336.21 404.38 1336.18 404.577C1336.14 404.775 1336.05 404.958 1335.92 405.107L1334.01 407.245C1333.89 407.374 1333.81 407.529 1333.77 407.698C1333.73 407.866 1333.72 408.042 1333.76 408.21L1334.43 410.979C1334.48 411.173 1334.47 411.377 1334.41 411.566C1334.35 411.756 1334.23 411.925 1334.08 412.053C1333.93 412.181 1333.74 412.264 1333.54 412.292C1333.35 412.32 1333.14 412.292 1332.96 412.212L1330.34 411.054C1330.18 410.984 1330.01 410.953 1329.83 410.964C1329.66 410.976 1329.49 411.03 1329.35 411.121L1326.9 412.62C1326.73 412.726 1326.54 412.782 1326.34 412.781C1326.14 412.78 1325.94 412.723 1325.77 412.617C1325.6 412.51 1325.46 412.358 1325.38 412.178C1325.29 411.997 1325.25 411.796 1325.27 411.597L1325.57 408.763C1325.59 408.59 1325.56 408.416 1325.5 408.255C1325.43 408.094 1325.33 407.952 1325.2 407.84L1323.02 405.977C1322.87 405.847 1322.75 405.678 1322.69 405.487C1322.63 405.296 1322.62 405.092 1322.67 404.898C1322.72 404.704 1322.82 404.527 1322.97 404.388C1323.11 404.25 1323.29 404.154 1323.49 404.112L1326.29 403.521C1326.46 403.485 1326.62 403.408 1326.75 403.296C1326.88 403.185 1326.99 403.043 1327.05 402.883L1328.14 400.237C1328.22 400.05 1328.34 399.888 1328.51 399.77C1328.67 399.652 1328.86 399.582 1329.07 399.568C1329.27 399.555 1329.47 399.598 1329.65 399.693C1329.82 399.789 1329.97 399.932 1330.07 400.107Z" fill="#FEC272"/>
<path d="M1212.97 680.249L1214.18 682.326C1214.25 682.453 1214.35 682.559 1214.47 682.636C1214.6 682.713 1214.74 682.759 1214.88 682.769L1217.28 682.953C1217.45 682.966 1217.61 683.026 1217.74 683.125C1217.88 683.224 1217.98 683.359 1218.04 683.515C1218.1 683.67 1218.12 683.84 1218.09 684.005C1218.06 684.17 1217.99 684.324 1217.88 684.448L1216.27 686.237C1216.18 686.346 1216.11 686.477 1216.07 686.62C1216.03 686.763 1216.04 686.912 1216.07 687.054L1216.63 689.388C1216.67 689.551 1216.66 689.721 1216.61 689.88C1216.56 690.039 1216.46 690.18 1216.33 690.288C1216.2 690.395 1216.05 690.465 1215.88 690.489C1215.72 690.513 1215.55 690.491 1215.39 690.424L1213.2 689.451C1213.07 689.393 1212.92 689.367 1212.78 689.377C1212.63 689.387 1212.49 689.431 1212.37 689.507L1210.33 690.758C1210.19 690.846 1210.02 690.892 1209.85 690.891C1209.68 690.89 1209.52 690.842 1209.38 690.753C1209.24 690.663 1209.12 690.535 1209.05 690.384C1208.98 690.233 1208.95 690.064 1208.96 689.897L1209.2 687.509C1209.22 687.363 1209.2 687.216 1209.14 687.079C1209.09 686.943 1209 686.822 1208.89 686.727L1207.07 685.17C1206.94 685.061 1206.84 684.919 1206.79 684.759C1206.74 684.6 1206.74 684.429 1206.78 684.266C1206.82 684.104 1206.9 683.956 1207.02 683.84C1207.14 683.723 1207.29 683.643 1207.46 683.608L1209.8 683.104C1209.95 683.074 1210.08 683.01 1210.19 682.917C1210.3 682.824 1210.39 682.705 1210.45 682.57L1211.36 680.35C1211.43 680.195 1211.53 680.061 1211.67 679.964C1211.81 679.866 1211.97 679.809 1212.14 679.798C1212.3 679.788 1212.47 679.825 1212.62 679.904C1212.77 679.984 1212.89 680.103 1212.97 680.249Z" fill="#FEC272"/>
<g style="mix-blend-mode:soft-light" opacity="0.48">
<path d="M1235.61 451.541C1245.31 448.706 1252.36 443.626 1251.36 440.195C1250.36 436.763 1241.68 436.28 1231.98 439.114C1222.28 441.949 1215.23 447.029 1216.23 450.46C1217.23 453.892 1225.91 454.375 1235.61 451.541Z" fill="white"/>
</g>
<g style="mix-blend-mode:multiply">
<path d="M1265.61 562.365C1265.61 562.365 1253.6 553.005 1251.55 553.144C1249.5 553.282 1244.57 561.653 1245.95 563.691C1247.32 565.729 1254.12 572.248 1261.22 573.916C1263.18 569.467 1265.61 562.365 1265.61 562.365Z" fill="#E1ECFF"/>
</g>
<g style="mix-blend-mode:multiply" opacity="0.5">
<path d="M1273.14 519.518L1304.71 593.605L1341.62 566.604L1306.33 489.268L1273.14 519.518Z" fill="#FF97C9"/>
</g>
<g style="mix-blend-mode:multiply">
<path d="M1353.8 631.556C1350.06 635.108 1345.78 638.051 1341.13 640.277C1336.76 642.308 1335.48 645.948 1337.27 652.346C1339.07 658.745 1340.51 668.814 1343.49 671.29C1346.47 673.766 1356.01 671.699 1360.59 665.168C1358.2 653.07 1353.8 631.556 1353.8 631.556Z" fill="#E1ECFF"/>
</g>
<g style="mix-blend-mode:multiply">
<path d="M1375.45 563.623C1375.45 563.623 1370.01 566.442 1370.81 570.299C1371.6 574.157 1378.59 592.59 1380.97 594.134C1383.34 595.679 1389.81 592.219 1389.81 592.219C1381.64 573.251 1375.45 563.623 1375.45 563.623Z" fill="#E1ECFF"/>
</g>
<path d="M1142.08 624.599C1137.01 615.664 1150.85 604.802 1163.25 604.681C1175.65 604.561 1181.61 615.611 1186.27 619.569C1196 627.828 1196.3 636.531 1190.22 640.691C1184.15 644.851 1148.8 636.418 1142.08 624.599Z" fill="#99ADF9"/>
<path d="M1381.55 464.727C1377.73 461.817 1380.44 446.746 1388.71 442.703C1396.99 438.66 1407.8 441.741 1410.46 447.535C1413.12 453.329 1389.37 470.688 1381.55 464.727Z" fill="#99ADF9"/>
<path d="M1423.77 469.847C1422.1 472.6 1421.38 480.17 1425.36 481.239C1429.34 482.309 1431.77 474.408 1430.13 470.491C1428.49 466.574 1424.88 468.007 1423.77 469.847Z" fill="#99ADF9"/>
<path opacity="0.44" d="M1422.47 408.904C1419.66 410.469 1415.27 416.674 1418.2 419.583C1421.13 422.493 1427.15 416.837 1427.67 412.626C1428.2 408.414 1424.35 407.861 1422.47 408.904Z" fill="#99ADF9"/>
<path opacity="0.44" d="M1165.14 662.079C1162.49 660.248 1154.98 659.045 1153.66 662.957C1152.34 666.869 1160.08 669.76 1164.08 668.389C1168.08 667.018 1166.9 663.303 1165.14 662.079Z" fill="#99ADF9"/>
<g style="mix-blend-mode:multiply" opacity="0.64">
<path d="M1183.91 617.184C1179.49 618.326 1180.48 622.275 1182.16 625.799C1183.84 629.324 1188.95 630.016 1192.28 626.467C1189.6 621.129 1183.91 617.184 1183.91 617.184Z" fill="#99ADF9"/>
</g>
<g style="mix-blend-mode:multiply" opacity="0.64">
<path d="M1157.81 612.887C1154.63 613.459 1152.33 618.268 1154.84 621.873C1157.35 625.479 1161.84 627.925 1164.23 626.735C1166.62 625.545 1166.66 619.979 1164.65 616.546C1162.63 613.112 1160.86 612.335 1157.81 612.887Z" fill="#99ADF9"/>
</g>
<g style="mix-blend-mode:multiply" opacity="0.64">
<path d="M1400.27 445.131C1398.55 445.81 1396.89 447.831 1397.19 449.873C1397.48 451.915 1399.4 453.587 1401.33 453.212C1403.25 452.836 1404.7 449.584 1404.15 447.354C1403.59 445.124 1401.58 444.617 1400.27 445.131Z" fill="#99ADF9"/>
</g>
<g style="mix-blend-mode:multiply" opacity="0.64">
<path d="M1381.94 450.387C1381.94 450.387 1384.5 452.626 1384.28 455.378C1384.07 458.13 1379.91 458.157 1379.91 458.157C1379.91 458.157 1380.21 453.47 1381.94 450.387Z" fill="#99ADF9"/>
</g>
</g>
<defs>
<filter id="filter0_f_703_514" x="828.744" y="91.4465" width="863.389" height="955.311" filterUnits="userSpaceOnUse" color-interpolation-filters="sRGB">
<feFlood flood-opacity="0" result="BackgroundImageFix"/>
<feBlend mode="normal" in="SourceGraphic" in2="BackgroundImageFix" result="shape"/>
<feGaussianBlur stdDeviation="105" result="effect1_foregroundBlur_703_514"/>
</filter>
<linearGradient id="paint0_linear_703_514" x1="1120.97" y1="851.792" x2="998.292" y2="419.965" gradientUnits="userSpaceOnUse">
<stop stop-color="#6DDCFF"/>
<stop offset="1" stop-color="#7F60F9"/>
</linearGradient>
<clipPath id="clip0_703_514">
<rect width="1920" height="1083" fill="white"/>
</clipPath>
</defs>
</svg>
