<svg width="20" height="20" viewBox="0 0 20 20" fill="none" xmlns="http://www.w3.org/2000/svg">
<path d="M8.43128 18.2569H4.17399C2.7945 18.2521 1.67603 17.2051 1.6659 15.909V7.95252C1.6686 7.51864 1.87524 7.10806 2.23045 6.83078L2.9801 6.30905C3.25378 6.03508 3.28161 5.61703 3.0464 5.31315C2.81118 5.00928 2.37931 4.90535 2.01758 5.06557L1.24942 5.6047C0.474555 6.16802 0.0147252 7.0321 0 7.95252V15.9177C0.00508979 18.0817 1.87087 19.8347 4.17399 19.8395H8.43128C8.89131 19.8395 9.26423 19.4891 9.26423 19.0569C9.26423 18.6246 8.89131 18.2743 8.43128 18.2743V18.2569Z" fill="white"/>
<path d="M20 7.93515C19.9903 7.02148 19.5454 6.15997 18.7876 5.58732L12.3924 0.796018C10.9871 -0.265339 8.98518 -0.265339 7.57984 0.796018L5.55301 2.17863C5.17221 2.43556 5.08519 2.93389 5.35865 3.29167C5.63211 3.64946 6.16249 3.73121 6.54329 3.47428L8.59789 2.0308C9.40432 1.40701 10.568 1.40701 11.3744 2.0308L17.7696 6.82211C18.1376 7.09624 18.3551 7.51128 18.3619 7.95254V15.9178C18.3619 17.2144 17.2431 18.2656 15.863 18.2656H13.9658C13.7715 18.2656 13.6141 18.1176 13.6141 17.9351V14.3438C13.6141 13.1994 12.6294 12.2704 11.4114 12.2656H8.63491C8.04827 12.2656 7.48565 12.4845 7.07083 12.8743C6.65602 13.264 6.42297 13.7927 6.42297 14.3438V15.7178C6.42297 16.15 6.7959 16.5004 7.25592 16.5004C7.71595 16.5004 8.08887 16.15 8.08887 15.7178V14.3438C8.08639 14.2086 8.14184 14.0781 8.24278 13.9816C8.34372 13.8851 8.48167 13.8308 8.62566 13.8308H11.4021C11.6986 13.8308 11.9389 14.0566 11.9389 14.3351V17.9351C11.944 18.9835 12.85 19.8308 13.9658 19.8308H15.8168C18.122 19.8308 19.9908 18.075 19.9908 15.9091L20 7.93515Z" fill="white"/>
</svg>
