<svg width="28" height="28" viewBox="0 0 28 28" fill="none" xmlns="http://www.w3.org/2000/svg">
<g id="Group">
<g id="Group_2">
<g id="Group_3">
<path id="Vector" d="M20.9923 3.26898L20.9923 3.26896C20.8095 2.95338 20.4056 2.84562 20.0898 3.02835L20.0897 3.02841C19.7742 3.21118 19.6662 3.6152 19.8491 3.93097C19.8887 3.99929 19.9079 4.07108 19.9079 4.14737C19.9079 4.3866 19.7129 4.5816 19.4736 4.5816H11.2631C11.0239 4.5816 10.8289 4.3866 10.8289 4.14737C10.8289 3.90809 11.0239 3.71309 11.2631 3.71309H17.4317C17.6679 3.71309 17.886 3.58709 18.004 3.38252L18.004 3.38246C18.1219 3.17791 18.1217 2.92597 18.0033 2.72161C17.9638 2.65335 17.9446 2.58157 17.9446 2.50521C17.9446 2.26597 18.1396 2.07098 18.3788 2.07098H25.4946C25.7338 2.07098 25.9288 2.26597 25.9288 2.50521C25.9288 2.74444 25.7339 2.93943 25.4946 2.93943H21.9915C21.6266 2.93943 21.331 3.23523 21.331 3.59995C21.331 3.96469 21.6266 4.26046 21.9915 4.26046H25.4946C26.4627 4.26046 27.2499 3.4733 27.2499 2.50521C27.2499 1.53716 26.4627 0.75 25.4947 0.75H18.3789C17.4489 0.75 16.6857 1.47657 16.6272 2.39211H11.2631C10.295 2.39211 9.50781 3.17927 9.50781 4.14737C9.50781 5.11547 10.295 5.90263 11.2631 5.90263H19.4736C20.4417 5.90263 21.2289 5.11547 21.2289 4.14737C21.2289 3.83967 21.147 3.53602 20.9923 3.26898Z" fill="white" stroke="white" stroke-width="0.5"/>
<g id="Vector_2">
<mask id="path-2-outside-1_783_121" maskUnits="userSpaceOnUse" x="0" y="0" width="28" height="28" fill="black">
<rect fill="white" width="28" height="28"/>
<path d="M26.0421 17.9684H20.021C19.4929 17.9684 19.0631 18.3982 19.0631 18.9263V19.9115C19.0631 20.1383 19.2469 20.3221 19.4737 20.3221C19.7005 20.3221 19.8842 20.1382 19.8842 19.9115V18.9263C19.8842 18.8509 19.9455 18.7894 20.021 18.7894H26.0421C26.1175 18.7894 26.1789 18.8508 26.1789 18.9263V20.5684C26.1789 20.6438 26.1176 20.7053 26.0421 20.7053H15.6421C15.1139 20.7053 14.6842 21.135 14.6842 21.6631V26.1789H12.221V24.4C12.221 23.8718 11.7913 23.4421 11.2631 23.4421H8.93681V7.84211H20.0115C20.018 7.84227 20.0243 7.84227 20.0306 7.84211H21.8V13.6464C21.1689 13.8255 20.7053 14.407 20.7053 15.0947C20.7053 15.9248 21.3805 16.6 22.2105 16.6C23.0405 16.6 23.7158 15.9248 23.7158 15.0947C23.7158 14.868 23.532 14.6842 23.3053 14.6842C23.0785 14.6842 22.8947 14.8681 22.8947 15.0947C22.8947 15.472 22.5878 15.779 22.2105 15.779C21.8332 15.779 21.5263 15.472 21.5263 15.0947C21.5263 14.7174 21.8332 14.4105 22.2105 14.4105C22.4373 14.4105 22.621 14.2267 22.621 14V7.84211H22.7579C22.9847 7.84211 23.1684 7.65829 23.1684 7.4316C23.1684 7.20486 22.9847 7.02108 22.7579 7.02108H20.0933L17.3717 6.03141C17.1585 5.95396 16.9231 6.06386 16.8455 6.27688C16.7681 6.48991 16.8779 6.72543 17.091 6.80298L17.6907 7.02103H7.02103V1.41052C7.02103 1.18378 6.8372 1 6.61052 1C6.38378 1 6.2 1.18383 6.2 1.41052V7.02103H2.31524L5.55107 3.32289C5.70031 3.15226 5.68305 2.89292 5.51242 2.74362C5.3418 2.59443 5.08251 2.61164 4.93316 2.78227L1.10304 7.15961C1 7.27595 0.999951 7.41799 1 7.43343V10.7158C1 11.2439 1.42976 11.6737 1.95789 11.6737H3.05263C3.58081 11.6737 4.01052 11.2439 4.01052 10.7158V7.84211H5.37892V10.1588C5.37877 10.1652 5.37877 10.1716 5.37892 10.1779V12.4577C5.37877 12.4641 5.37877 12.4705 5.37892 12.4769V14.7566C5.37877 14.763 5.37877 14.7694 5.37892 14.7758V17.0556C5.37877 17.062 5.37877 17.0683 5.37892 17.0747V19.3545C5.37877 19.3609 5.37877 19.3672 5.37892 19.3736V21.6534C5.37877 21.6598 5.37877 21.6661 5.37892 21.6725V23.442H2.50526C1.97708 23.442 1.54737 23.8717 1.54737 24.3998V26.1788H1.41052C1.18378 26.1788 1 26.3626 1 26.5893C1 26.8162 1.18383 27 1.41052 27H8.52629C8.75303 27 8.93681 26.8162 8.93681 26.5895C8.93681 26.3627 8.75298 26.179 8.52629 26.179H2.3684V24.4C2.3684 24.3246 2.4298 24.2631 2.50526 24.2631H11.2631C11.3386 24.2631 11.4 24.3245 11.4 24.4V26.179H10.1684C9.94167 26.179 9.75789 26.3628 9.75789 26.5895C9.75789 26.8162 9.94172 27 10.1684 27H26.5894C26.8162 27 27 26.8162 27 26.5895C27 26.3627 26.8162 26.179 26.5894 26.179H25.9052V24.4C25.9052 23.8718 25.4754 23.4421 24.9473 23.4421H20.0347C19.8079 23.4421 19.6242 23.6259 19.6242 23.8526C19.6242 24.0794 19.808 24.2631 20.0347 24.2631H24.9473C25.0228 24.2631 25.0842 24.3245 25.0842 24.4V26.179H15.5053V24.2632H18.42C18.6468 24.2632 18.8305 24.0794 18.8305 23.8527C18.8305 23.6259 18.6468 23.4422 18.42 23.4422H15.5053V21.6632C15.5053 21.5878 15.5666 21.5263 15.6421 21.5263H22.8947V22.6621C22.8947 22.8889 23.0785 23.0726 23.3053 23.0726C23.532 23.0726 23.7158 22.8888 23.7158 22.6621V21.5263H26.0421C26.5703 21.5263 27 21.0966 27 20.5685V18.9263C27 18.3982 26.5702 17.9684 26.0421 17.9684ZM3.18949 10.7158C3.18949 10.7912 3.12809 10.8526 3.05263 10.8526H1.95789C1.88248 10.8526 1.82103 10.7912 1.82103 10.7158V7.84211H3.18944L3.18949 10.7158ZM8.11578 23.4421H6.2V21.9591L7.56135 21.5053C7.77645 21.4336 7.89275 21.2011 7.82104 20.986C7.74934 20.7709 7.51676 20.6546 7.30175 20.7263L6.2 21.0936V19.6601L7.56135 19.2063C7.77645 19.1346 7.89275 18.9021 7.82104 18.6871C7.74934 18.4719 7.51676 18.3558 7.30175 18.4274L6.2 18.7946V17.3612L7.56135 16.9074C7.77645 16.8357 7.89275 16.6031 7.82104 16.3881C7.74934 16.173 7.51676 16.0567 7.30175 16.1284L6.2 16.4956V15.0622L7.56135 14.6084C7.77645 14.5367 7.89275 14.3042 7.82104 14.0891C7.74934 13.874 7.51676 13.7578 7.30175 13.8294L6.2 14.1967V12.7632L7.56135 12.3094C7.77645 12.2377 7.89275 12.0052 7.82104 11.7902C7.74934 11.575 7.51676 11.4588 7.30175 11.5305L6.2 11.8977V10.4643L7.56135 10.0105C7.77645 9.93877 7.89275 9.70624 7.82104 9.49118C7.74934 9.27607 7.51676 9.15989 7.30175 9.23149L6.2 9.59874V7.84201H8.11578V23.4421Z"/>
</mask>
<path d="M26.0421 17.9684H20.021C19.4929 17.9684 19.0631 18.3982 19.0631 18.9263V19.9115C19.0631 20.1383 19.2469 20.3221 19.4737 20.3221C19.7005 20.3221 19.8842 20.1382 19.8842 19.9115V18.9263C19.8842 18.8509 19.9455 18.7894 20.021 18.7894H26.0421C26.1175 18.7894 26.1789 18.8508 26.1789 18.9263V20.5684C26.1789 20.6438 26.1176 20.7053 26.0421 20.7053H15.6421C15.1139 20.7053 14.6842 21.135 14.6842 21.6631V26.1789H12.221V24.4C12.221 23.8718 11.7913 23.4421 11.2631 23.4421H8.93681V7.84211H20.0115C20.018 7.84227 20.0243 7.84227 20.0306 7.84211H21.8V13.6464C21.1689 13.8255 20.7053 14.407 20.7053 15.0947C20.7053 15.9248 21.3805 16.6 22.2105 16.6C23.0405 16.6 23.7158 15.9248 23.7158 15.0947C23.7158 14.868 23.532 14.6842 23.3053 14.6842C23.0785 14.6842 22.8947 14.8681 22.8947 15.0947C22.8947 15.472 22.5878 15.779 22.2105 15.779C21.8332 15.779 21.5263 15.472 21.5263 15.0947C21.5263 14.7174 21.8332 14.4105 22.2105 14.4105C22.4373 14.4105 22.621 14.2267 22.621 14V7.84211H22.7579C22.9847 7.84211 23.1684 7.65829 23.1684 7.4316C23.1684 7.20486 22.9847 7.02108 22.7579 7.02108H20.0933L17.3717 6.03141C17.1585 5.95396 16.9231 6.06386 16.8455 6.27688C16.7681 6.48991 16.8779 6.72543 17.091 6.80298L17.6907 7.02103H7.02103V1.41052C7.02103 1.18378 6.8372 1 6.61052 1C6.38378 1 6.2 1.18383 6.2 1.41052V7.02103H2.31524L5.55107 3.32289C5.70031 3.15226 5.68305 2.89292 5.51242 2.74362C5.3418 2.59443 5.08251 2.61164 4.93316 2.78227L1.10304 7.15961C1 7.27595 0.999951 7.41799 1 7.43343V10.7158C1 11.2439 1.42976 11.6737 1.95789 11.6737H3.05263C3.58081 11.6737 4.01052 11.2439 4.01052 10.7158V7.84211H5.37892V10.1588C5.37877 10.1652 5.37877 10.1716 5.37892 10.1779V12.4577C5.37877 12.4641 5.37877 12.4705 5.37892 12.4769V14.7566C5.37877 14.763 5.37877 14.7694 5.37892 14.7758V17.0556C5.37877 17.062 5.37877 17.0683 5.37892 17.0747V19.3545C5.37877 19.3609 5.37877 19.3672 5.37892 19.3736V21.6534C5.37877 21.6598 5.37877 21.6661 5.37892 21.6725V23.442H2.50526C1.97708 23.442 1.54737 23.8717 1.54737 24.3998V26.1788H1.41052C1.18378 26.1788 1 26.3626 1 26.5893C1 26.8162 1.18383 27 1.41052 27H8.52629C8.75303 27 8.93681 26.8162 8.93681 26.5895C8.93681 26.3627 8.75298 26.179 8.52629 26.179H2.3684V24.4C2.3684 24.3246 2.4298 24.2631 2.50526 24.2631H11.2631C11.3386 24.2631 11.4 24.3245 11.4 24.4V26.179H10.1684C9.94167 26.179 9.75789 26.3628 9.75789 26.5895C9.75789 26.8162 9.94172 27 10.1684 27H26.5894C26.8162 27 27 26.8162 27 26.5895C27 26.3627 26.8162 26.179 26.5894 26.179H25.9052V24.4C25.9052 23.8718 25.4754 23.4421 24.9473 23.4421H20.0347C19.8079 23.4421 19.6242 23.6259 19.6242 23.8526C19.6242 24.0794 19.808 24.2631 20.0347 24.2631H24.9473C25.0228 24.2631 25.0842 24.3245 25.0842 24.4V26.179H15.5053V24.2632H18.42C18.6468 24.2632 18.8305 24.0794 18.8305 23.8527C18.8305 23.6259 18.6468 23.4422 18.42 23.4422H15.5053V21.6632C15.5053 21.5878 15.5666 21.5263 15.6421 21.5263H22.8947V22.6621C22.8947 22.8889 23.0785 23.0726 23.3053 23.0726C23.532 23.0726 23.7158 22.8888 23.7158 22.6621V21.5263H26.0421C26.5703 21.5263 27 21.0966 27 20.5685V18.9263C27 18.3982 26.5702 17.9684 26.0421 17.9684ZM3.18949 10.7158C3.18949 10.7912 3.12809 10.8526 3.05263 10.8526H1.95789C1.88248 10.8526 1.82103 10.7912 1.82103 10.7158V7.84211H3.18944L3.18949 10.7158ZM8.11578 23.4421H6.2V21.9591L7.56135 21.5053C7.77645 21.4336 7.89275 21.2011 7.82104 20.986C7.74934 20.7709 7.51676 20.6546 7.30175 20.7263L6.2 21.0936V19.6601L7.56135 19.2063C7.77645 19.1346 7.89275 18.9021 7.82104 18.6871C7.74934 18.4719 7.51676 18.3558 7.30175 18.4274L6.2 18.7946V17.3612L7.56135 16.9074C7.77645 16.8357 7.89275 16.6031 7.82104 16.3881C7.74934 16.173 7.51676 16.0567 7.30175 16.1284L6.2 16.4956V15.0622L7.56135 14.6084C7.77645 14.5367 7.89275 14.3042 7.82104 14.0891C7.74934 13.874 7.51676 13.7578 7.30175 13.8294L6.2 14.1967V12.7632L7.56135 12.3094C7.77645 12.2377 7.89275 12.0052 7.82104 11.7902C7.74934 11.575 7.51676 11.4588 7.30175 11.5305L6.2 11.8977V10.4643L7.56135 10.0105C7.77645 9.93877 7.89275 9.70624 7.82104 9.49118C7.74934 9.27607 7.51676 9.15989 7.30175 9.23149L6.2 9.59874V7.84201H8.11578V23.4421Z" fill="white"/>
<path d="M26.0421 17.9684H20.021C19.4929 17.9684 19.0631 18.3982 19.0631 18.9263V19.9115C19.0631 20.1383 19.2469 20.3221 19.4737 20.3221C19.7005 20.3221 19.8842 20.1382 19.8842 19.9115V18.9263C19.8842 18.8509 19.9455 18.7894 20.021 18.7894H26.0421C26.1175 18.7894 26.1789 18.8508 26.1789 18.9263V20.5684C26.1789 20.6438 26.1176 20.7053 26.0421 20.7053H15.6421C15.1139 20.7053 14.6842 21.135 14.6842 21.6631V26.1789H12.221V24.4C12.221 23.8718 11.7913 23.4421 11.2631 23.4421H8.93681V7.84211H20.0115C20.018 7.84227 20.0243 7.84227 20.0306 7.84211H21.8V13.6464C21.1689 13.8255 20.7053 14.407 20.7053 15.0947C20.7053 15.9248 21.3805 16.6 22.2105 16.6C23.0405 16.6 23.7158 15.9248 23.7158 15.0947C23.7158 14.868 23.532 14.6842 23.3053 14.6842C23.0785 14.6842 22.8947 14.8681 22.8947 15.0947C22.8947 15.472 22.5878 15.779 22.2105 15.779C21.8332 15.779 21.5263 15.472 21.5263 15.0947C21.5263 14.7174 21.8332 14.4105 22.2105 14.4105C22.4373 14.4105 22.621 14.2267 22.621 14V7.84211H22.7579C22.9847 7.84211 23.1684 7.65829 23.1684 7.4316C23.1684 7.20486 22.9847 7.02108 22.7579 7.02108H20.0933L17.3717 6.03141C17.1585 5.95396 16.9231 6.06386 16.8455 6.27688C16.7681 6.48991 16.8779 6.72543 17.091 6.80298L17.6907 7.02103H7.02103V1.41052C7.02103 1.18378 6.8372 1 6.61052 1C6.38378 1 6.2 1.18383 6.2 1.41052V7.02103H2.31524L5.55107 3.32289C5.70031 3.15226 5.68305 2.89292 5.51242 2.74362C5.3418 2.59443 5.08251 2.61164 4.93316 2.78227L1.10304 7.15961C1 7.27595 0.999951 7.41799 1 7.43343V10.7158C1 11.2439 1.42976 11.6737 1.95789 11.6737H3.05263C3.58081 11.6737 4.01052 11.2439 4.01052 10.7158V7.84211H5.37892V10.1588C5.37877 10.1652 5.37877 10.1716 5.37892 10.1779V12.4577C5.37877 12.4641 5.37877 12.4705 5.37892 12.4769V14.7566C5.37877 14.763 5.37877 14.7694 5.37892 14.7758V17.0556C5.37877 17.062 5.37877 17.0683 5.37892 17.0747V19.3545C5.37877 19.3609 5.37877 19.3672 5.37892 19.3736V21.6534C5.37877 21.6598 5.37877 21.6661 5.37892 21.6725V23.442H2.50526C1.97708 23.442 1.54737 23.8717 1.54737 24.3998V26.1788H1.41052C1.18378 26.1788 1 26.3626 1 26.5893C1 26.8162 1.18383 27 1.41052 27H8.52629C8.75303 27 8.93681 26.8162 8.93681 26.5895C8.93681 26.3627 8.75298 26.179 8.52629 26.179H2.3684V24.4C2.3684 24.3246 2.4298 24.2631 2.50526 24.2631H11.2631C11.3386 24.2631 11.4 24.3245 11.4 24.4V26.179H10.1684C9.94167 26.179 9.75789 26.3628 9.75789 26.5895C9.75789 26.8162 9.94172 27 10.1684 27H26.5894C26.8162 27 27 26.8162 27 26.5895C27 26.3627 26.8162 26.179 26.5894 26.179H25.9052V24.4C25.9052 23.8718 25.4754 23.4421 24.9473 23.4421H20.0347C19.8079 23.4421 19.6242 23.6259 19.6242 23.8526C19.6242 24.0794 19.808 24.2631 20.0347 24.2631H24.9473C25.0228 24.2631 25.0842 24.3245 25.0842 24.4V26.179H15.5053V24.2632H18.42C18.6468 24.2632 18.8305 24.0794 18.8305 23.8527C18.8305 23.6259 18.6468 23.4422 18.42 23.4422H15.5053V21.6632C15.5053 21.5878 15.5666 21.5263 15.6421 21.5263H22.8947V22.6621C22.8947 22.8889 23.0785 23.0726 23.3053 23.0726C23.532 23.0726 23.7158 22.8888 23.7158 22.6621V21.5263H26.0421C26.5703 21.5263 27 21.0966 27 20.5685V18.9263C27 18.3982 26.5702 17.9684 26.0421 17.9684ZM3.18949 10.7158C3.18949 10.7912 3.12809 10.8526 3.05263 10.8526H1.95789C1.88248 10.8526 1.82103 10.7912 1.82103 10.7158V7.84211H3.18944L3.18949 10.7158ZM8.11578 23.4421H6.2V21.9591L7.56135 21.5053C7.77645 21.4336 7.89275 21.2011 7.82104 20.986C7.74934 20.7709 7.51676 20.6546 7.30175 20.7263L6.2 21.0936V19.6601L7.56135 19.2063C7.77645 19.1346 7.89275 18.9021 7.82104 18.6871C7.74934 18.4719 7.51676 18.3558 7.30175 18.4274L6.2 18.7946V17.3612L7.56135 16.9074C7.77645 16.8357 7.89275 16.6031 7.82104 16.3881C7.74934 16.173 7.51676 16.0567 7.30175 16.1284L6.2 16.4956V15.0622L7.56135 14.6084C7.77645 14.5367 7.89275 14.3042 7.82104 14.0891C7.74934 13.874 7.51676 13.7578 7.30175 13.8294L6.2 14.1967V12.7632L7.56135 12.3094C7.77645 12.2377 7.89275 12.0052 7.82104 11.7902C7.74934 11.575 7.51676 11.4588 7.30175 11.5305L6.2 11.8977V10.4643L7.56135 10.0105C7.77645 9.93877 7.89275 9.70624 7.82104 9.49118C7.74934 9.27607 7.51676 9.15989 7.30175 9.23149L6.2 9.59874V7.84201H8.11578V23.4421Z" stroke="white" mask="url(#path-2-outside-1_783_121)"/>
</g>
<path id="Vector_3" d="M8.84795 4.07109L8.84794 4.07109L7.75323 3.67298C7.75322 3.67297 7.75321 3.67297 7.7532 3.67296C7.41037 3.54832 7.23355 3.16932 7.35828 2.82642L7.35829 2.82638C7.48306 2.48352 7.86213 2.30692 8.20471 2.43144L8.20475 2.43145L9.2995 2.82958L9.29955 2.8296C9.64229 2.95433 9.81916 3.33323 9.69448 3.67604L8.84795 4.07109ZM8.84795 4.07109C8.92211 4.09806 8.99838 4.11098 9.07369 4.11098M8.84795 4.07109L9.07369 4.11098M9.07369 4.11098C9.34318 4.11098 9.59677 3.94475 9.69447 3.67608L9.07369 4.11098Z" fill="white" stroke="white" stroke-width="0.5"/>
</g>
</g>
</g>
</svg>
