<svg width="20" height="20" viewBox="0 0 20 20" fill="none" xmlns="http://www.w3.org/2000/svg">
<path d="M14.0361 11.3671C13.9579 11.2897 13.8521 11.2462 13.7419 11.2462C13.6316 11.2462 13.5258 11.2897 13.4477 11.3671L12.6923 12.1281L11.9035 11.338C13.0933 10.0161 13.7169 8.28295 13.6409 6.50897C13.565 4.73499 12.7955 3.06101 11.4971 1.84491C10.1987 0.628815 8.47427 -0.0328918 6.6926 0.00125913C4.91094 0.0354101 3.21337 0.762709 1.96284 2.02767C0.724199 3.2803 0.0208391 4.96242 0.000455662 6.7208C-0.0199278 8.47919 0.644251 10.177 1.85353 11.4578C3.0628 12.7387 4.7231 13.5028 6.48578 13.5898C8.24846 13.6767 9.97641 13.0798 11.3068 11.9243L12.0997 12.7144L11.336 13.4712C11.2583 13.5491 11.2146 13.6545 11.2146 13.7644C11.2146 13.8742 11.2583 13.9796 11.336 14.0575L17.1785 19.8791C17.2567 19.9565 17.3625 20 17.4728 20C17.583 20 17.6888 19.9565 17.767 19.8791L19.8786 17.775C19.9564 17.6971 20 17.5917 20 17.4818C20 17.372 19.9564 17.2666 19.8786 17.1887L14.0361 11.3671ZM2.55544 11.0553C1.46898 9.92903 0.869086 8.42319 0.884581 6.86112C0.900076 5.29905 1.52973 3.80532 2.63832 2.70071C3.74691 1.59611 5.24602 0.968719 6.81373 0.95328C8.38143 0.93784 9.8927 1.53558 11.023 2.61814C12.1094 3.74436 12.7093 5.2502 12.6939 6.81227C12.6784 8.37434 12.0487 9.86807 10.9401 10.9727C9.83153 12.0773 8.33241 12.7047 6.7647 12.7201C5.197 12.7355 3.68573 12.1378 2.55544 11.0553ZM17.4665 18.9934L12.2249 13.7664L13.744 12.2528L18.9897 17.4756L17.4665 18.9934Z" fill="white"/>
</svg>
