<svg width="40" height="40" viewBox="0 0 40 40" fill="none" xmlns="http://www.w3.org/2000/svg">
<rect x="1.25" y="1.25" width="36.9843" height="36.9843" rx="4" fill="white"/>
<path d="M39.9803 9.09326C39.9634 8.23512 39.8942 7.37881 39.7733 6.52906C39.6299 5.77419 39.3862 5.04187 39.0487 4.35156C38.3085 2.8887 37.1211 1.7 35.6591 0.95826C34.9728 0.621684 34.2448 0.378118 33.4941 0.234C32.638 0.11066 31.775 0.0402193 30.9101 0.0230799C30.5432 0.00975987 30.0683 0.00318003 29.8492 0.00318003L10.1538 0C9.93554 0 9.46058 0.0066 9.09326 0.01966C8.23512 0.0365231 7.3788 0.105658 6.52906 0.22668C5.77419 0.370103 5.04188 0.613759 4.35156 0.95118C2.88872 1.69148 1.70001 2.87891 0.95812 4.34094C0.621647 5.02722 0.378092 5.75526 0.23388 6.50586C0.110644 7.36205 0.0401974 8.22502 0.0229402 9.08986C0.00988016 9.4568 0.00318003 9.93166 0.00318003 10.1507L0 29.8462C0 30.0643 0.0066 30.5393 0.01966 30.9067C0.0365231 31.7649 0.105658 32.6212 0.22668 33.4709C0.37012 34.2258 0.613776 34.9581 0.95118 35.6484C1.69144 37.1112 2.87883 38.2999 4.34082 39.0417C5.02715 39.3782 5.75523 39.6218 6.50586 39.766C7.36204 39.8894 8.22501 39.9598 9.08986 39.9769C9.45668 39.9901 9.93166 39.9968 10.1507 39.9968L29.8462 40C30.0643 40 30.5394 39.9934 30.9066 39.9803C31.7648 39.9634 32.6212 39.8943 33.4709 39.7733C34.2257 39.6298 34.958 39.3862 35.6483 39.0488C37.1112 38.3085 38.2999 37.1211 39.0417 35.6591C39.3783 34.9728 39.6218 34.2448 39.766 33.4941C39.8893 32.638 39.9598 31.775 39.9771 30.9101C39.9902 30.5432 39.9968 30.0683 39.9968 29.8493L40 10.1538C40 9.93566 39.9934 9.46058 39.9803 9.09326ZM20.4335 33.913H20.4276C18.0471 33.9128 15.7045 33.3164 13.6138 32.1781L6.05518 34.1601L8.078 26.7738C6.51085 24.0546 5.88458 20.8943 6.29629 17.783C6.70801 14.6717 8.1347 11.7831 10.3552 9.56506C12.5756 7.34707 15.4658 5.9236 18.5776 5.51535C21.6894 5.10711 24.849 5.73689 27.5664 7.30707C30.2839 8.87725 32.4074 11.3001 33.6077 14.1999C34.8081 17.0998 35.0182 20.3147 34.2054 23.3461C33.3927 26.3775 31.6026 29.0561 29.1126 30.9666C26.6227 32.8771 23.5719 33.9127 20.4335 33.913Z" fill="url(#paint0_linear_338_3199)"/>
<path d="M20.4105 8.5647C18.4252 8.56423 16.476 9.09567 14.7656 10.1037C13.0552 11.1118 11.6462 12.5597 10.6849 14.2968C9.72371 16.034 9.24542 17.9969 9.29983 19.9815C9.35423 21.9661 9.93934 23.8999 10.9943 25.5817L11.2586 26.002L10.1361 30.1004L14.3411 28.9977L14.7467 29.2384C16.4588 30.2522 18.4119 30.7869 20.4016 30.7866H20.4061C23.3504 30.7834 26.1731 29.6117 28.2542 27.5288C30.3352 25.446 31.5044 22.6222 31.505 19.6779C31.5056 16.7336 30.3375 13.9094 28.2573 11.8256C26.1771 9.74192 23.3549 8.56907 20.4105 8.5647ZM26.9457 24.4459C26.6998 24.8518 26.3725 25.2024 25.9845 25.4756C25.5965 25.7488 25.1562 25.9388 24.6912 26.0336C23.9892 26.1537 23.2689 26.1085 22.5875 25.9014C21.9408 25.7006 21.3053 25.4657 20.6834 25.198C18.3766 24.0404 16.4105 22.303 14.9777 20.1562C14.1966 19.1622 13.7227 17.9618 13.614 16.7022C13.6047 16.1822 13.7038 15.6659 13.9051 15.1863C14.1064 14.7068 14.4054 14.2744 14.783 13.9167C14.8946 13.7894 15.0313 13.6866 15.1846 13.6147C15.3379 13.5428 15.5044 13.5033 15.6736 13.4989C15.8962 13.4989 16.1191 13.5009 16.3137 13.5107C16.5187 13.5208 16.7941 13.4327 17.0652 14.0839C17.3435 14.7523 18.0115 16.3958 18.0949 16.5629C18.1479 16.6504 18.1781 16.7497 18.183 16.8519C18.1879 16.954 18.1672 17.0558 18.1229 17.1479C18.0387 17.3486 17.9262 17.5362 17.7888 17.705C17.6218 17.9 17.438 18.1404 17.2879 18.29C17.1206 18.4565 16.9465 18.6372 17.1413 18.9714C17.6429 19.83 18.2691 20.6095 18.9994 21.2845C19.7916 21.9889 20.7005 22.5497 21.6854 22.9418C22.0193 23.109 22.2141 23.0811 22.409 22.8583C22.6038 22.6354 23.2439 21.8833 23.4665 21.5491C23.689 21.2149 23.9117 21.2705 24.2179 21.382C24.524 21.4935 26.1662 22.3012 26.5003 22.4683C26.8343 22.6354 27.0569 22.719 27.1403 22.8583C27.2319 23.3952 27.1642 23.947 26.9457 24.4459Z" fill="#A87600"/>
<defs>
<linearGradient id="paint0_linear_338_3199" x1="2.07631" y1="24.9158" x2="57.0986" y2="6.22894" gradientUnits="userSpaceOnUse">
<stop offset="0.439571" stop-color="#A87600"/>
<stop offset="0.736598" stop-color="#FFD470"/>
</linearGradient>
</defs>
</svg>
