<svg width="31" height="31" viewBox="0 0 31 31" fill="none" xmlns="http://www.w3.org/2000/svg">
<g id="Group 83">
<path id="Vector" d="M15.5 31C24.0604 31 31 24.0604 31 15.5C31 6.93959 24.0604 0 15.5 0C6.93959 0 0 6.93959 0 15.5C0 24.0604 6.93959 31 15.5 31Z" fill="white"/>
<path id="Vector_2" d="M20.8351 17.4056L22.6669 19.2512C23.2775 19.8664 23.2775 21.0966 22.6668 21.712C21.4856 22.9022 19.9342 23.2501 19.3085 23.2501C16.8664 23.2501 15.3404 22.9421 11.677 19.2509C8.01363 15.5597 7.70801 13.4069 7.70801 11.5613C7.70801 10.331 8.01345 9.40806 9.23457 8.17767C9.84521 7.5624 11.0551 7.63314 11.6658 8.24835L13.5084 10.0233C14.1191 10.6384 14.1189 11.8688 13.5084 12.4841L12.2873 13.7145C12.5925 15.8676 14.9817 18.3228 17.1718 18.636L18.3929 17.4056C19.0034 16.7904 20.2246 16.7904 20.8351 17.4056Z" fill="black"/>
</g>
</svg>
