<svg width="21" height="20" viewBox="0 0 21 20" fill="none" xmlns="http://www.w3.org/2000/svg">
<g id="Subtract">
<path d="M17.5065 1.45505C17.8958 1.31349 18.0966 0.883172 17.955 0.493897C17.8135 0.104622 17.3832 -0.0961955 16.9939 0.0453591L4.50037 4.58846V0.750206C4.50037 0.335992 4.16458 0.000205999 3.75037 0.000205999H2.25037C1.83615 0.000205999 1.50037 0.335992 1.50037 0.750206V5.67937L0.493897 6.04536C0.104622 6.18691 -0.0961955 6.61724 0.0453591 7.00651C0.186914 7.39579 0.617236 7.5966 1.00651 7.45505L17.5065 1.45505Z" fill="#999999"/>
<path fill-rule="evenodd" clip-rule="evenodd" d="M1.51932 8.86473L16.5004 3.41708V6.83858L20.5065 8.29536C20.8958 8.43691 21.0966 8.86724 20.955 9.25651C20.8135 9.64579 20.3832 9.8466 19.9939 9.70505L19.5002 9.52553V18.0002H20.2504C20.6646 18.0002 21.0004 18.336 21.0004 18.7502C21.0004 19.1644 20.6646 19.5002 20.2504 19.5002H0.750366C0.336153 19.5002 0.000366217 19.1644 0.000366217 18.7502C0.000366217 18.336 0.336153 18.0002 0.750366 18.0002H1.50037V8.87153L1.51932 8.86473ZM16.5004 18.0002V8.43468L18.0002 8.98007V18.0002H16.5004ZM7.50037 12.0002C7.08615 12.0002 6.75037 12.336 6.75037 12.7502V17.2502C6.75037 17.6644 7.08615 18.0002 7.50037 18.0002H10.5004C10.9146 18.0002 11.2504 17.6644 11.2504 17.2502V12.7502C11.2504 12.336 10.9146 12.0002 10.5004 12.0002H7.50037Z" fill="#999999"/>
</g>
</svg>
