<svg width="19" height="19" viewBox="0 0 19 19" fill="none" xmlns="http://www.w3.org/2000/svg">
<path id="Vector" fill-rule="evenodd" clip-rule="evenodd" d="M16.2318 2.76112C14.4457 0.981541 12.0703 0.00100024 9.53967 0C4.32528 0 0.0814093 4.22326 0.0793225 9.41434C0.0786269 11.0737 0.51427 12.6935 1.34209 14.1212L0 19L5.01507 17.6908C6.39681 18.4408 7.95255 18.8361 9.53589 18.8368H9.53978C14.7536 18.8368 18.9979 14.613 19 9.42185C19.001 6.90618 18.0179 4.54069 16.2318 2.76112ZM9.53978 17.2466H9.53656C8.12565 17.2461 6.74177 16.8689 5.53454 16.1559L5.2474 15.9863L2.27142 16.7632L3.06578 13.8755L2.8788 13.5795C2.0917 12.3335 1.67598 10.8935 1.67659 9.41493C1.67832 5.10032 5.20569 1.59012 9.5429 1.59012C11.6431 1.59092 13.6173 2.40596 15.1019 3.88508C16.5864 5.3642 17.4036 7.33031 17.4028 9.42124C17.4009 13.7362 13.8736 17.2466 9.53978 17.2466ZM13.8528 11.3859C13.6164 11.2681 12.4543 10.699 12.2376 10.6205C12.0209 10.542 11.8633 10.5028 11.7057 10.7383C11.5482 10.9738 11.0952 11.5037 10.9572 11.6606C10.8194 11.8177 10.6815 11.8373 10.4451 11.7195C10.2087 11.6018 9.44708 11.3534 8.54419 10.5519C7.84152 9.92818 7.36708 9.15774 7.2292 8.92225C7.09132 8.68673 7.21454 8.55939 7.33286 8.44213C7.43919 8.33672 7.56923 8.16738 7.68743 8.02998C7.8056 7.89262 7.845 7.79449 7.92378 7.63751C8.00259 7.48049 7.96319 7.3431 7.9041 7.22536C7.845 7.10761 7.37228 5.9497 7.17528 5.47869C6.98342 5.01996 6.78853 5.08203 6.64344 5.07485C6.50571 5.06802 6.34797 5.06656 6.1904 5.06656C6.03281 5.06656 5.77674 5.12545 5.56005 5.36094C5.34339 5.59646 4.73276 6.16559 4.73276 7.32348C4.73276 8.48137 5.57976 9.6 5.69795 9.75701C5.81613 9.91402 7.36476 12.2902 9.73598 13.3092C10.2999 13.5516 10.7403 13.6963 11.0835 13.8048C11.6498 13.9838 12.1651 13.9585 12.5724 13.8979C13.0266 13.8304 13.9709 13.3288 14.1679 12.7793C14.3649 12.2298 14.3649 11.7588 14.3058 11.6607C14.2468 11.5625 14.0892 11.5037 13.8528 11.3859Z" fill="#CB9107"/>
</svg>
