<svg width="20" height="20" viewBox="0 0 20 20" fill="none" xmlns="http://www.w3.org/2000/svg">
<g id="Group 87">
<rect id="Rectangle 86" width="19" height="19" rx="4" fill="white"/>
<g id="Group 86">
<path id="Vector" d="M19.2554 4.37952C19.2473 3.96622 19.214 3.5538 19.1557 3.14454C19.0866 2.78098 18.9693 2.42828 18.8067 2.09581C18.4503 1.39126 17.8784 0.818761 17.1742 0.46152C16.8437 0.299417 16.4931 0.18211 16.1315 0.1127C15.7192 0.0532963 15.3036 0.0193705 14.887 0.0111158C14.7103 0.00470058 14.4816 0.00153157 14.3761 0.00153157L4.8903 0C4.78518 0 4.55643 0.00317871 4.37952 0.0094687C3.96622 0.0175904 3.5538 0.0508872 3.14454 0.109174C2.78098 0.17825 2.42828 0.295601 2.09581 0.45811C1.39127 0.814658 0.818764 1.38655 0.461452 2.0907C0.299399 2.42122 0.182098 2.77187 0.112642 3.13337C0.0532885 3.54573 0.01936 3.96136 0.0110485 4.37788C0.00475851 4.55461 0.00153157 4.78331 0.00153157 4.88879L0 14.3746C0 14.4797 0.00317871 14.7084 0.0094687 14.8854C0.0175904 15.2987 0.0508872 15.7111 0.109174 16.1204C0.178258 16.4839 0.295609 16.8366 0.45811 17.1691C0.814638 17.8736 1.38651 18.4461 2.09064 18.8034C2.42119 18.9654 2.77185 19.0827 3.13337 19.1522C3.54573 19.2116 3.96135 19.2456 4.37788 19.2538C4.55455 19.2602 4.78331 19.2634 4.88879 19.2634L14.3746 19.2649C14.4797 19.2649 14.7085 19.2617 14.8853 19.2554C15.2987 19.2473 15.7111 19.214 16.1204 19.1557C16.4839 19.0866 16.8366 18.9693 17.169 18.8068C17.8736 18.4503 18.4461 17.8784 18.8034 17.1742C18.9655 16.8437 19.0828 16.4931 19.1522 16.1315C19.2116 15.7192 19.2456 15.3036 19.2539 14.887C19.2602 14.7103 19.2634 14.4816 19.2634 14.3761L19.2649 4.8903C19.2649 4.78524 19.2617 4.55643 19.2554 4.37952ZM9.84123 16.3333H9.83841C8.69189 16.3332 7.56366 16.0459 6.5567 15.4977L2.91631 16.4523L3.89055 12.8949C3.13578 11.5852 2.83415 10.0632 3.03244 8.5647C3.23073 7.06621 3.91786 5.67499 4.98728 4.60675C6.05671 3.53852 7.44869 2.85294 8.9474 2.65632C10.4461 2.4597 11.9678 2.76302 13.2766 3.51925C14.5854 4.27549 15.6081 5.44238 16.1862 6.83902C16.7644 8.23565 16.8655 9.784 16.4741 11.244C16.0827 12.704 15.2205 13.9941 14.0213 14.9142C12.8221 15.8344 11.3528 16.3331 9.84123 16.3333Z" fill="url(#paint0_linear_149_395)"/>
<path id="Vector_2" d="M9.84336 3.75781C8.82343 3.75757 7.82206 4.03059 6.94339 4.54847C6.06471 5.06634 5.34083 5.81017 4.84702 6.70259C4.3532 7.595 4.1075 8.60342 4.13545 9.62297C4.16339 10.6425 4.46398 11.636 5.00594 12.5L5.1417 12.7159L4.56508 14.8214L6.72528 14.2549L6.9337 14.3786C7.81323 14.8993 8.81662 15.174 9.83878 15.1739H9.84107C11.3537 15.1723 12.8038 14.5703 13.8729 13.5003C14.942 12.4302 15.5426 10.9796 15.5429 9.46701C15.5433 7.95441 14.9432 6.50353 13.8745 5.43306C12.8058 4.36259 11.356 3.76006 9.84336 3.75781ZM13.2007 11.9165C13.0743 12.125 12.9062 12.3051 12.7069 12.4455C12.5076 12.5858 12.2813 12.6834 12.0425 12.7321C11.6818 12.7938 11.3118 12.7706 10.9617 12.6642C10.6295 12.561 10.303 12.4404 9.98352 12.3028C8.79848 11.7081 7.78839 10.8156 7.05237 9.71275C6.65108 9.20208 6.40759 8.58537 6.35175 7.9383C6.34699 7.67115 6.39793 7.40593 6.50132 7.15955C6.60472 6.91318 6.75831 6.69104 6.95231 6.5073C7.00965 6.4419 7.07989 6.38908 7.15863 6.35214C7.23737 6.3152 7.3229 6.29494 7.40985 6.29265C7.5242 6.29265 7.63872 6.29371 7.73867 6.29871C7.84402 6.30394 7.98547 6.25868 8.12476 6.5932C8.26773 6.9366 8.61091 7.78089 8.65376 7.86675C8.68095 7.9117 8.6965 7.96272 8.69901 8.0152C8.70151 8.06767 8.69089 8.11994 8.66811 8.16728C8.62486 8.27039 8.56707 8.36676 8.4965 8.45348C8.41072 8.55366 8.3163 8.67713 8.23916 8.75401C8.15321 8.83956 8.06379 8.93239 8.16385 9.10406C8.42156 9.54516 8.74325 9.94562 9.11842 10.2924C9.52539 10.6542 9.99233 10.9423 10.4983 11.1438C10.6698 11.2297 10.7699 11.2153 10.87 11.1009C10.9701 10.9864 11.299 10.6 11.4133 10.4283C11.5276 10.2566 11.642 10.2852 11.7993 10.3425C11.9566 10.3997 12.8002 10.8147 12.9719 10.9005C13.1435 10.9864 13.2578 11.0293 13.3007 11.1009C13.3477 11.3767 13.3129 11.6602 13.2007 11.9165Z" fill="#A87600"/>
</g>
</g>
<defs>
<linearGradient id="paint0_linear_149_395" x1="1" y1="12" x2="27.5" y2="3" gradientUnits="userSpaceOnUse">
<stop offset="0.439571" stop-color="#A87600"/>
<stop offset="0.736598" stop-color="#FFD470"/>
</linearGradient>
</defs>
</svg>
