<svg xmlns="http://www.w3.org/2000/svg" width="12" height="13" viewBox="0 0 12 13" fill="none">
  <path d="M11.2 6.62982H1.6V2.12982C1.59954 1.96035 1.63269 1.79247 1.69754 1.63591C1.7624 1.47934 1.85766 1.33719 1.97783 1.21769L1.98783 1.20769C2.17614 1.01965 2.41792 0.894339 2.68013 0.848868C2.94234 0.803398 3.21219 0.839989 3.45283 0.953642C3.22557 1.33149 3.13111 1.77445 3.18446 2.21214C3.23781 2.64982 3.43591 3.05712 3.74728 3.36932L4.02105 3.64309L3.51712 4.14704L4.08278 4.71269L4.5867 4.20877L7.37893 1.41659L7.88285 0.912667L7.31718 0.346993L6.81322 0.850918L6.53945 0.577143C6.21167 0.250275 5.77958 0.0487821 5.3185 0.00777576C4.85741 -0.0332306 4.39655 0.0888495 4.01623 0.352743C3.61518 0.0994709 3.13992 -0.00986829 2.66851 0.0426867C2.19711 0.0952416 1.75759 0.306565 1.42218 0.641943L1.41218 0.651942C1.21749 0.845566 1.06313 1.07588 0.958054 1.32956C0.852974 1.58324 0.799253 1.85524 0.8 2.12982V6.62982H0V7.42982H0.8V8.19732C0.799983 8.26181 0.810383 8.32587 0.8308 8.38704L1.575 10.6195C1.61471 10.7391 1.69108 10.843 1.79325 10.9167C1.89542 10.9903 2.0182 11.0299 2.14415 11.0298H2.46665L2.175 12.0298H3.00832L3.3 11.0298H8.5025L8.8025 12.0298H9.6375L9.3375 11.0298H9.85575C9.98172 11.0299 10.1045 10.9904 10.2067 10.9167C10.3089 10.8431 10.3853 10.7391 10.425 10.6195L11.1692 8.38704C11.1896 8.32587 11.2 8.26181 11.2 8.19732V7.42982H12V6.62982H11.2ZM4.313 1.14282C4.5334 0.922898 4.83204 0.799389 5.14339 0.799389C5.45474 0.799389 5.75338 0.922898 5.97378 1.14282L6.2475 1.41659L4.58677 3.07732L4.313 2.80359C4.09309 2.58319 3.96959 2.28455 3.96959 1.9732C3.96959 1.66186 4.09309 1.36322 4.313 1.14282ZM10.4 8.16482L9.7117 10.2298H2.2883L1.6 8.16482V7.42982H10.4V8.16482Z" fill="white"/>
</svg>