<svg xmlns="http://www.w3.org/2000/svg" width="17" height="13" viewBox="0 0 17 13" fill="none">
  <mask id="path-1-outside-1_322_2626" maskUnits="userSpaceOnUse" x="0.578125" y="0" width="16" height="7" fill="black">
    <rect fill="white" x="0.578125" width="16" height="7"/>
    <path d="M15.4729 6.21055V2.1579C15.4729 1.52105 14.9519 1 14.315 1H2.73602C2.09918 1 1.57812 1.52105 1.57812 2.1579V6.21055"/>
  </mask>
  <path d="M16.2729 6.21055V2.1579H14.6729V6.21055H16.2729ZM16.2729 2.1579C16.2729 1.07923 15.3937 0.2 14.315 0.2V1.8C14.51 1.8 14.6729 1.96288 14.6729 2.1579H16.2729ZM14.315 0.2H2.73602V1.8H14.315V0.2ZM2.73602 0.2C1.65735 0.2 0.778125 1.07923 0.778125 2.1579H2.37813C2.37813 1.96288 2.54101 1.8 2.73602 1.8V0.2ZM0.778125 2.1579V6.21055H2.37813V2.1579H0.778125Z" fill="white" mask="url(#path-1-outside-1_322_2626)"/>
  <mask id="path-3-outside-2_322_2626" maskUnits="userSpaceOnUse" x="2.89453" y="2.89478" width="7" height="4" fill="black">
    <rect fill="white" x="2.89453" y="2.89478" width="7" height="4"/>
    <path d="M3.89453 6.21057V5.05268C3.89453 4.41583 4.41559 3.89478 5.05243 3.89478H7.36823C8.00508 3.89478 8.52613 4.41583 8.52613 5.05268V6.21057"/>
  </mask>
  <path d="M4.69453 6.21057V5.05268H3.09453V6.21057H4.69453ZM4.69453 5.05268C4.69453 4.85766 4.85741 4.69478 5.05243 4.69478V3.09478C3.97376 3.09478 3.09453 3.974 3.09453 5.05268H4.69453ZM5.05243 4.69478H7.36823V3.09478H5.05243V4.69478ZM7.36823 4.69478C7.56325 4.69478 7.72613 4.85766 7.72613 5.05268H9.32613C9.32613 3.974 8.4469 3.09478 7.36823 3.09478V4.69478ZM7.72613 5.05268V6.21057H9.32613V5.05268H7.72613Z" fill="white" mask="url(#path-3-outside-2_322_2626)"/>
  <mask id="path-5-outside-3_322_2626" maskUnits="userSpaceOnUse" x="7.52539" y="2.89478" width="7" height="4" fill="black">
    <rect fill="white" x="7.52539" y="2.89478" width="7" height="4"/>
    <path d="M8.52539 6.21057V5.05268C8.52539 4.41583 9.04645 3.89478 9.68329 3.89478H11.9991C12.6359 3.89478 13.157 4.41583 13.157 5.05268V6.21057"/>
  </mask>
  <path d="M9.32539 6.21057V5.05268H7.72539V6.21057H9.32539ZM9.32539 5.05268C9.32539 4.85766 9.48827 4.69478 9.68329 4.69478V3.09478C8.60462 3.09478 7.72539 3.974 7.72539 5.05268H9.32539ZM9.68329 4.69478H11.9991V3.09478H9.68329V4.69478ZM11.9991 4.69478C12.1941 4.69478 12.357 4.85766 12.357 5.05268H13.957C13.957 3.974 13.0778 3.09478 11.9991 3.09478V4.69478ZM12.357 5.05268V6.21057H13.957V5.05268H12.357Z" fill="white" mask="url(#path-5-outside-3_322_2626)"/>
  <path d="M0.6 11.9999V12.3999H1H2.73685H3.13685V11.9999V11.242H13.9158V11.9999V12.3999H14.3158H16.0527H16.4527V11.9999V7.36835C16.4527 6.51059 15.7526 5.81045 14.8948 5.81045H2.1579C1.30014 5.81045 0.6 6.51059 0.6 7.36835V11.9999Z" stroke="white" stroke-width="0.8" stroke-miterlimit="10"/>
</svg>