<svg id="Layer_1" data-name="Layer 1" xmlns="http://www.w3.org/2000/svg" xmlns:xlink="http://www.w3.org/1999/xlink" viewBox="0 0 988.37 988.37"><defs><style>.cls-1{fill:url(#linear-gradient);}.cls-2{fill:#fff;}</style><linearGradient id="linear-gradient" x1="334.96" y1="321.99" x2="805.61" y2="839.71" gradientTransform="matrix(1, 0, 0, -1, 0, 1082)" gradientUnits="userSpaceOnUse"><stop offset="0" stop-color="#a87601"/><stop offset="1" stop-color="#efc35b"/></linearGradient></defs><path class="cls-1" d="M539.41,1029.3c272.93,0,494.18-221.25,494.18-494.18S812.34,40.93,539.41,40.93,45.22,262.18,45.22,535.12,266.48,1029.3,539.41,1029.3Z" transform="translate(-45.22 -40.93)"/><path class="cls-2" d="M713.1,595.87l58.72,58.84c19.57,19.62,19.58,58.84,0,78.46-37.87,38-87.6,49-107.65,49-78.28,0-127.2-9.82-244.63-127.51S292.31,468.38,292.31,409.54c0-39.23,9.8-68.65,48.94-107.88,19.57-19.62,58.36-17.36,77.93,2.25l59.07,56.59c19.57,19.61,19.57,58.84,0,78.46L439.1,478.19c9.79,68.64,86.37,146.92,156.58,156.91l39.14-39.23C654.39,576.26,693.53,576.26,713.1,595.87Z" transform="translate(-45.22 -40.93)"/></svg>