<svg xmlns="http://www.w3.org/2000/svg" width="24" height="25" viewBox="0 0 24 25" fill="none">
  <path fill-rule="evenodd" clip-rule="evenodd" d="M11.548 4.40842H2.78266C2.04465 4.40842 1.33687 4.70159 0.815021 5.22344C0.293172 5.74529 0 6.45307 0 7.19108V22.2174C0 22.9554 0.293172 23.6632 0.815021 24.185C1.33687 24.7069 2.04465 25.0001 2.78266 25.0001H18.0873C19.6177 25.0001 20.8699 23.6087 20.8699 22.0783V11.0868L15.3046 16.9304C14.8872 17.3478 14.3307 17.7652 13.635 17.9043L9.87843 18.7391C7.51317 19.1565 5.28704 16.9304 5.70444 14.426L6.53924 10.3911C6.67837 9.69547 7.09577 8.9998 7.51317 8.5824L11.6872 4.26929L11.548 4.40842Z" fill="white"/>
  <path fill-rule="evenodd" clip-rule="evenodd" d="M23.374 1.76481C23.1123 1.10208 22.6175 0.557793 21.9827 0.234352C21.4751 0.0117055 20.9125 -0.0542688 20.3672 0.0448861C19.8218 0.144041 19.3185 0.403807 18.9217 0.790883L18.0869 1.62568L22.1218 5.79966L22.8175 4.96487C23.0875 4.68934 23.3003 4.36306 23.4436 4.00486C23.5869 3.64666 23.6578 3.26363 23.6523 2.87787C23.6523 2.59961 23.6523 2.18221 23.374 1.76481ZM20.0348 7.88665L16.1391 3.71267L9.46072 10.6693L9.32159 11.0867L8.34766 15.2607C8.34766 15.6781 8.76506 16.2346 9.18245 16.0955L12.939 15.2607L13.3564 15.1216L19.8957 8.16492L20.0348 7.88665Z" fill="white"/>
</svg>