<svg xmlns="http://www.w3.org/2000/svg" width="12" height="15" viewBox="0 0 12 15" fill="none">
  <path d="M4.96692 14.4644C0.777613 8.39116 0 7.76786 0 5.53585C0 2.47847 2.47847 0 5.53585 0C8.59322 0 11.0717 2.47847 11.0717 5.53585C11.0717 7.76786 10.2941 8.39116 6.10477 14.4644C5.82985 14.8616 5.24181 14.8615 4.96692 14.4644ZM5.53585 7.84245C6.80975 7.84245 7.84245 6.80975 7.84245 5.53585C7.84245 4.26194 6.80975 3.22924 5.53585 3.22924C4.26194 3.22924 3.22924 4.26194 3.22924 5.53585C3.22924 6.80975 4.26194 7.84245 5.53585 7.84245Z" fill="#D3D3D3"/>
</svg>