<svg id="Layer_1" data-name="Layer 1" xmlns="http://www.w3.org/2000/svg" xmlns:xlink="http://www.w3.org/1999/xlink" viewBox="0 0 847.94 681.38"><defs><style>.cls-1{fill:#fff;}.cls-2{fill:url(#linear-gradient);}.cls-3{fill:url(#linear-gradient-2);}</style><linearGradient id="linear-gradient" x1="515.74" y1="318.8" x2="594.36" y2="620.34" gradientTransform="matrix(1, 0, 0, -1, 0, 1082)" gradientUnits="userSpaceOnUse"><stop offset="0" stop-color="#a87601"/><stop offset="1" stop-color="#efc35b"/></linearGradient><linearGradient id="linear-gradient-2" x1="530.59" y1="591.47" x2="583.98" y2="842.67" xlink:href="#linear-gradient"/></defs><path class="cls-1" d="M249.16,251.72H875.9c61.08,0,110.6,49.27,110.6,110.06V728.64c0,60.79-49.52,110.06-110.6,110.06H249.16c-61.09,0-110.6-49.27-110.6-110.06V361.78C138.56,301,188.07,251.72,249.16,251.72Z" transform="translate(-138.56 -199.31)"/><path class="cls-2" d="M986.5,409.88,579.28,629.15a35.31,35.31,0,0,1-33.49,0L138.56,409.87V739.36A141.32,141.32,0,0,0,279.88,880.69h565.3A141.32,141.32,0,0,0,986.5,739.36Z" transform="translate(-138.56 -199.31)"/><path class="cls-3" d="M279.88,199.31A141.32,141.32,0,0,0,138.56,340.64v14.22l424,228.3,424-228.29V340.64A141.32,141.32,0,0,0,845.18,199.31Z" transform="translate(-138.56 -199.31)"/></svg>