<svg width="21" height="19" viewBox="0 0 21 19" fill="none" xmlns="http://www.w3.org/2000/svg">
<g id="Union">
<path d="M10.5 4.5C9.25736 4.5 8.25 5.50736 8.25 6.75C8.25 7.99264 9.25736 9 10.5 9C11.7426 9 12.75 7.99264 12.75 6.75C12.75 5.50736 11.7426 4.5 10.5 4.5Z" fill="#999999"/>
<path fill-rule="evenodd" clip-rule="evenodd" d="M0 1.875C0 0.839466 0.839466 0 1.875 0H19.125C20.1605 0 21 0.839466 21 1.875V11.625C21 12.6605 20.1605 13.5 19.125 13.5H1.875C0.839465 13.5 0 12.6605 0 11.625V1.875ZM6.75 6.75C6.75 4.67893 8.42893 3 10.5 3C12.5711 3 14.25 4.67893 14.25 6.75C14.25 8.82107 12.5711 10.5 10.5 10.5C8.42893 10.5 6.75 8.82107 6.75 6.75ZM17.25 6C16.8358 6 16.5 6.33579 16.5 6.75V6.7575C16.5 7.17171 16.8358 7.5075 17.25 7.5075H17.2575C17.6717 7.5075 18.0075 7.17171 18.0075 6.7575V6.75C18.0075 6.33579 17.6717 6 17.2575 6H17.25ZM3 6.75C3 6.33579 3.33579 6 3.75 6H3.7575C4.17171 6 4.5075 6.33579 4.5075 6.75V6.7575C4.5075 7.17171 4.17171 7.5075 3.7575 7.5075H3.75C3.33579 7.5075 3 7.17171 3 6.7575V6.75Z" fill="#999999"/>
<path d="M0.75 15C0.335786 15 0 15.3358 0 15.75C0 16.1642 0.335786 16.5 0.75 16.5C6.15005 16.5 11.3802 17.2222 16.3498 18.5749C17.5404 18.899 18.75 18.0168 18.75 16.7551V15.75C18.75 15.3358 18.4142 15 18 15H0.75Z" fill="#999999"/>
</g>
</svg>
