<svg width="29" height="30" viewBox="0 0 29 30" fill="none" xmlns="http://www.w3.org/2000/svg">
<path d="M15.2625 29C13.1814 28.9905 11.1275 28.5382 9.24346 27.6746C7.35943 26.8111 5.69053 25.5569 4.3528 23.9995C3.01507 22.442 2.04061 20.6186 1.49719 18.6559C0.953761 16.6933 0.854405 14.6385 1.20603 12.6346C1.55765 10.6306 2.35182 8.72553 3.53331 7.05178C4.71479 5.37804 6.25525 3.97579 8.04755 2.94255C9.83986 1.90931 11.841 1.26988 13.9119 1.0687C15.9827 0.867527 18.0736 1.10944 20.039 1.77763M7.30151 11.111L13.6703 17.3333L26.8855 4.11098M23.2234 18.1111V27.4444M18.4468 22.7777H28" stroke="white" stroke-width="2" stroke-linecap="round" stroke-linejoin="round"/>
</svg>
