<svg xmlns="http://www.w3.org/2000/svg" width="12" height="12" viewBox="0 0 12 12" fill="none">
  <path d="M11.5003 3.18105L8.50101 0.155051C8.45105 0.105501 8.39181 0.0662993 8.32667 0.0396937C8.26153 0.0130882 8.19179 -0.000397859 8.12143 8.93593e-06C7.98117 0.000599498 7.84677 0.0562817 7.74719 0.155051L0.155466 7.72004C0.055891 7.82021 0 7.95571 0 8.09695C0 8.23819 0.055891 8.3737 0.155466 8.47387L3.18146 11.4999C3.23142 11.5494 3.29066 11.5886 3.3558 11.6152C3.42094 11.6418 3.49069 11.6553 3.56105 11.6549C3.7013 11.6543 3.83571 11.5986 3.93529 11.4999L5.44828 9.98686L9.98728 5.44787L11.5003 3.93487C11.5998 3.8347 11.6557 3.6992 11.6557 3.55796C11.6557 3.41672 11.5998 3.28122 11.5003 3.18105ZM9.60769 4.31446L9.22811 3.93487C9.12794 3.8353 8.99243 3.77941 8.85119 3.77941C8.70995 3.77941 8.57445 3.8353 8.47428 3.93487C8.42417 3.98457 8.3844 4.0437 8.35725 4.10885C8.33011 4.174 8.31614 4.24388 8.31614 4.31446C8.31614 4.38504 8.33011 4.45491 8.35725 4.52006C8.3844 4.58521 8.42417 4.64434 8.47428 4.69404L8.85386 5.07363L8.09469 5.82746L6.96128 4.69404C6.85901 4.60646 6.72745 4.56069 6.59289 4.56589C6.45834 4.57108 6.3307 4.62686 6.23549 4.72208C6.14028 4.81729 6.0845 4.94493 6.0793 5.07948C6.0741 5.21404 6.11987 5.34559 6.20746 5.44787L7.34087 6.58128L6.5817 7.34045L6.20746 6.96087C6.10678 6.8602 5.97024 6.80364 5.82787 6.80364C5.6855 6.80364 5.54896 6.8602 5.44828 6.96087C5.34761 7.06154 5.29105 7.19808 5.29105 7.34045C5.29105 7.48283 5.34761 7.61937 5.44828 7.72004L5.82787 8.09428L5.07404 8.85345L3.93529 7.72004C3.83512 7.62046 3.69961 7.56457 3.55837 7.56457C3.41713 7.56457 3.28163 7.62046 3.18146 7.72004C3.08189 7.82021 3.026 7.95571 3.026 8.09695C3.026 8.23819 3.08189 8.3737 3.18146 8.47387L4.31487 9.60728L3.56105 10.3664L1.28888 8.09428L8.09469 1.28846L10.3669 3.56063L9.60769 4.31446Z" fill="white"/>
</svg>